<svg xmlns="http://www.w3.org/2000/svg" xmlns:xlink="http://www.w3.org/1999/xlink" width="1366" zoomAndPan="magnify" viewBox="0 0 1024.5 576" height="768" preserveAspectRatio="xMidYMid meet" version="1.2"><defs/><g id="e6cc9760cd"><g style="fill:#fffbfb;fill-opacity:1;"><g transform="translate(303.308564, 314.882927)"><path style="stroke:none" d="M 27.601562 3.015625 L 25.148438 2.546875 L 25.722656 -0.46875 L 25.289062 2.570312 C 24.113281 2.402344 22.546875 2.09375 20.59375 1.648438 L 14.691406 0.304688 C 12.601562 -0.167969 10.628906 -0.644531 8.769531 -1.117188 C 6.976562 -1.578125 5.554688 -1.917969 4.5 -2.144531 L 4.335938 -2.179688 L 3.472656 -2.464844 L 0.671875 -3.398438 L 0.671875 -5.613281 C 0.671875 -5.839844 0.65625 -6.144531 0.625 -6.527344 C 0.578125 -7.078125 0.554688 -8.136719 0.554688 -9.703125 C 0.554688 -11.160156 0.515625 -13.511719 0.4375 -16.761719 L 0.367188 -19.816406 L 15.871094 -20.253906 L 21.832031 -20.429688 C 22.988281 -20.46875 23.757812 -20.488281 24.144531 -20.488281 C 24.292969 -20.488281 24.460938 -20.507812 24.652344 -20.546875 L 25.253906 -17.539062 L 22.195312 -17.765625 L 22.542969 -22.445312 L 25.605469 -22.214844 L 22.628906 -21.46875 L 22.511719 -21.9375 L 25.488281 -22.683594 L 23.378906 -20.449219 L 10.679688 -32.445312 L 6.089844 -37.394531 L 3.683594 -40.40625 L 6.078125 -42.324219 L 3.910156 -40.152344 L 2.8125 -41.25 L 3.160156 -46.773438 L 3.285156 -47.152344 C 3.71875 -48.449219 4.078125 -49.765625 4.367188 -51.097656 C 4.664062 -52.484375 4.929688 -53.886719 5.152344 -55.3125 L 5.175781 -55.4375 C 5.324219 -56.179688 5.53125 -57.371094 5.796875 -59.007812 C 6.074219 -60.710938 6.371094 -62.394531 6.6875 -64.058594 C 6.988281 -65.632812 7.171875 -66.699219 7.242188 -67.257812 L 7.246094 -67.292969 L 8.976562 -78.808594 L 45.355469 -86.195312 L 46.261719 -83.707031 C 46.917969 -81.898438 47.53125 -79.871094 48.105469 -77.628906 C 48.65625 -75.464844 49.167969 -73.355469 49.640625 -71.308594 L 50.230469 -68.746094 L 47.789062 -67.769531 C 47.054688 -67.472656 46.492188 -67.238281 46.105469 -67.0625 C 45.765625 -66.90625 45.226562 -66.621094 44.488281 -66.199219 C 43.714844 -65.757812 42.375 -64.925781 40.46875 -63.707031 C 38.507812 -62.453125 35.574219 -60.613281 31.664062 -58.1875 L 30.046875 -60.796875 L 33.046875 -60.152344 C 32.789062 -58.945312 32.367188 -57.484375 31.78125 -55.769531 L 30.203125 -51.152344 C 29.683594 -49.632812 29.222656 -48.351562 28.820312 -47.300781 L 25.957031 -48.402344 L 27.328125 -51.148438 C 27.949219 -50.835938 29.128906 -50.046875 30.867188 -48.777344 L 36.601562 -44.5625 C 38.804688 -42.9375 41.0625 -41.316406 43.382812 -39.695312 C 45.703125 -38.070312 47.785156 -36.640625 49.636719 -35.40625 L 47.9375 -32.851562 L 49.441406 -35.527344 L 53.351562 -33.328125 L 52.785156 -31.058594 C 51.785156 -27.058594 50.898438 -23.058594 50.132812 -19.0625 C 49.347656 -14.996094 48.527344 -10.886719 47.667969 -6.742188 L 47.382812 -5.375 L 46.167969 -4.691406 C 44.820312 -3.933594 43.046875 -3.085938 40.835938 -2.144531 C 38.71875 -1.242188 36.597656 -0.359375 34.480469 0.503906 C 32.46875 1.324219 30.847656 2.058594 29.613281 2.710938 L 28.660156 3.214844 Z M 28.75 -3.015625 L 28.175781 0 L 26.742188 -2.710938 C 28.15625 -3.460938 29.964844 -4.285156 32.164062 -5.179688 C 34.253906 -6.03125 36.34375 -6.902344 38.433594 -7.792969 C 40.433594 -8.644531 42.007812 -9.394531 43.15625 -10.039062 L 44.660156 -7.367188 L 41.65625 -7.988281 C 42.511719 -12.105469 43.328125 -16.183594 44.101562 -20.222656 C 44.894531 -24.328125 45.800781 -28.4375 46.828125 -32.546875 L 49.804688 -31.800781 L 48.300781 -29.125 L 46.328125 -30.234375 L 46.234375 -30.300781 C 44.34375 -31.558594 42.21875 -33.015625 39.863281 -34.664062 C 37.503906 -36.316406 35.203125 -37.964844 32.964844 -39.617188 L 27.242188 -43.820312 C 25.78125 -44.890625 24.894531 -45.5 24.582031 -45.660156 L 22.089844 -46.90625 L 23.089844 -49.503906 C 23.46875 -50.484375 23.902344 -51.691406 24.394531 -53.136719 L 25.972656 -57.753906 C 26.480469 -59.238281 26.839844 -60.464844 27.046875 -61.441406 L 27.320312 -62.714844 L 28.429688 -63.40625 C 32.316406 -65.8125 35.226562 -67.636719 37.160156 -68.875 C 39.152344 -70.152344 40.582031 -71.035156 41.445312 -71.527344 C 42.34375 -72.042969 43.050781 -72.417969 43.566406 -72.652344 C 44.039062 -72.867188 44.6875 -73.136719 45.511719 -73.46875 L 46.648438 -70.617188 L 43.660156 -69.925781 C 43.195312 -71.929688 42.695312 -73.992188 42.15625 -76.117188 C 41.636719 -78.160156 41.082031 -79.992188 40.492188 -81.609375 L 43.375 -82.660156 L 43.988281 -79.652344 L 12.300781 -73.222656 L 11.691406 -76.230469 L 14.726562 -75.773438 L 13.324219 -66.421875 L 10.289062 -66.875 L 13.332031 -66.496094 C 13.246094 -65.808594 13.042969 -64.613281 12.71875 -62.910156 C 12.414062 -61.300781 12.125 -59.671875 11.855469 -58.023438 C 11.578125 -56.3125 11.355469 -55.046875 11.195312 -54.230469 L 8.183594 -54.832031 L 11.214844 -54.355469 C 10.972656 -52.816406 10.6875 -51.300781 10.367188 -49.800781 C 10.03125 -48.25 9.609375 -46.71875 9.109375 -45.210938 L 6.195312 -46.183594 L 9.257812 -45.992188 L 9.027344 -42.25 L 5.960938 -42.441406 L 8.132812 -44.609375 L 8.371094 -44.375 L 10.816406 -41.316406 L 8.417969 -39.402344 L 10.667969 -41.488281 L 15.113281 -36.695312 L 12.859375 -34.605469 L 14.96875 -36.839844 L 28.246094 -24.296875 L 28.703125 -22.476562 L 28.140625 -14.984375 L 25.855469 -14.527344 C 25.265625 -14.410156 24.695312 -14.351562 24.144531 -14.351562 C 23.828125 -14.351562 23.117188 -14.332031 22.011719 -14.292969 L 16.046875 -14.117188 L 3.59375 -13.769531 L 3.507812 -16.835938 L 6.574219 -16.910156 C 6.652344 -13.609375 6.695312 -11.210938 6.695312 -9.703125 C 6.695312 -8.308594 6.710938 -7.417969 6.742188 -7.035156 C 6.789062 -6.484375 6.808594 -6.007812 6.808594 -5.613281 L 3.742188 -5.613281 L 4.710938 -8.523438 L 5.414062 -8.289062 L 6.113281 -8.054688 L 5.144531 -5.144531 L 5.789062 -8.144531 C 6.917969 -7.902344 8.417969 -7.542969 10.289062 -7.066406 C 12.09375 -6.605469 14.015625 -6.144531 16.054688 -5.679688 L 21.964844 -4.335938 C 23.75 -3.925781 25.148438 -3.648438 26.15625 -3.507812 L 26.226562 -3.496094 Z M 28.75 -3.015625 "/></g></g><g style="fill:#fffbfb;fill-opacity:1;"><g transform="translate(356.622826, 314.882927)"><path style="stroke:none" d="M 1.957031 -63.953125 C 1.957031 -66.199219 1.902344 -67.917969 1.796875 -69.113281 C 1.6875 -70.320312 1.558594 -71.355469 1.414062 -72.21875 C 1.253906 -73.195312 1.089844 -74.328125 0.929688 -75.613281 C 0.765625 -76.921875 0.605469 -78.773438 0.445312 -81.167969 L 0.351562 -82.558594 L 1.335938 -83.542969 C 2.015625 -84.222656 2.855469 -84.558594 3.859375 -84.558594 L 3.859375 -81.492188 L 2.976562 -84.429688 C 5.382812 -85.152344 8.332031 -85.910156 11.828125 -86.703125 C 15.308594 -87.496094 18.632812 -88.167969 21.800781 -88.722656 L 24.898438 -89.265625 L 25.367188 -86.15625 C 25.59375 -84.632812 25.976562 -82.425781 26.515625 -79.539062 C 27.082031 -76.503906 27.488281 -73.332031 27.730469 -70.023438 L 27.910156 -67.574219 L 25.558594 -66.863281 C 22.964844 -66.074219 19.765625 -65.152344 15.964844 -64.09375 C 12.242188 -63.058594 8.925781 -62.042969 6.019531 -61.050781 L 1.957031 -59.660156 Z M 8.097656 -63.953125 L 5.027344 -63.953125 L 4.035156 -66.855469 C 7.050781 -67.890625 10.480469 -68.941406 14.316406 -70.007812 C 18.074219 -71.054688 21.230469 -71.964844 23.777344 -72.734375 L 24.667969 -69.800781 L 21.609375 -69.574219 C 21.382812 -72.65625 21.007812 -75.601562 20.484375 -78.414062 C 19.929688 -81.371094 19.535156 -83.648438 19.296875 -85.246094 L 22.332031 -85.699219 L 22.859375 -82.675781 C 19.792969 -82.140625 16.570312 -81.488281 13.191406 -80.71875 C 9.828125 -79.957031 7.011719 -79.234375 4.738281 -78.550781 L 4.308594 -78.421875 L 3.859375 -78.421875 C 4.550781 -78.421875 5.15625 -78.683594 5.675781 -79.203125 L 3.507812 -81.375 L 6.570312 -81.578125 C 6.722656 -79.296875 6.871094 -77.566406 7.019531 -76.375 C 7.171875 -75.171875 7.320312 -74.121094 7.46875 -73.226562 C 7.636719 -72.214844 7.785156 -71.03125 7.910156 -69.667969 C 8.035156 -68.289062 8.097656 -66.382812 8.097656 -63.953125 Z M 2.542969 0 C 2.542969 -2.875 2.523438 -6.273438 2.484375 -10.199219 L 2.308594 -22.695312 L 2.074219 -35.722656 L 1.84375 -47.40625 L 1.667969 -56.058594 L 1.546875 -63.617188 L 5.277344 -62.871094 C 5.59375 -62.808594 5.871094 -62.761719 6.109375 -62.730469 C 6.296875 -62.707031 6.480469 -62.695312 6.664062 -62.695312 L 6.773438 -62.695312 L 11.792969 -62.335938 C 12.8125 -62.265625 13.558594 -62.230469 14.03125 -62.230469 L 15.726562 -62.230469 C 16.421875 -62.230469 17.355469 -62.164062 18.519531 -62.035156 C 19.609375 -61.914062 21.222656 -61.695312 23.367188 -61.378906 L 23.851562 -61.304688 L 24.289062 -61.085938 C 24.011719 -61.222656 23.789062 -61.292969 23.617188 -61.292969 L 26.617188 -61.292969 L 26.683594 -58.296875 C 26.761719 -54.960938 26.839844 -52.308594 26.917969 -50.335938 L 27.09375 -45.472656 C 27.132812 -44.183594 27.152344 -42.941406 27.152344 -41.738281 L 27.152344 -37.472656 C 27.152344 -35.78125 27.132812 -33.527344 27.09375 -30.707031 L 26.976562 -19.550781 L 26.777344 0.414062 L 24.476562 0.988281 C 24.15625 1.070312 23.578125 1.210938 22.75 1.40625 C 21.972656 1.59375 20.082031 2.109375 17.085938 2.953125 L 16.488281 3.121094 L 15.871094 3.046875 C 15.375 2.984375 14.429688 2.953125 13.035156 2.953125 L 8.59375 2.953125 C 7.296875 2.953125 6.449219 2.980469 6.046875 3.039062 L 2.542969 3.539062 Z M 8.679688 0 L 5.613281 0 L 5.179688 -3.039062 C 5.867188 -3.136719 7.007812 -3.1875 8.59375 -3.1875 L 13.035156 -3.1875 C 14.683594 -3.1875 15.882812 -3.140625 16.632812 -3.046875 L 16.25 0 L 15.417969 -2.953125 C 18.5 -3.824219 20.46875 -4.359375 21.328125 -4.5625 C 22.136719 -4.757812 22.6875 -4.890625 22.988281 -4.964844 L 23.734375 -1.988281 L 20.664062 -2.019531 L 20.839844 -19.617188 L 20.957031 -30.792969 C 20.996094 -33.582031 21.015625 -35.808594 21.015625 -37.472656 L 21.015625 -41.738281 C 21.015625 -42.875 20.996094 -44.046875 20.960938 -45.253906 L 20.785156 -50.09375 C 20.707031 -52.097656 20.628906 -54.785156 20.550781 -58.152344 L 23.617188 -58.222656 L 23.617188 -55.15625 C 22.824219 -55.15625 22.132812 -55.300781 21.542969 -55.597656 L 22.914062 -58.339844 L 22.464844 -55.304688 C 20.398438 -55.613281 18.855469 -55.820312 17.839844 -55.933594 C 16.902344 -56.039062 16.195312 -56.089844 15.726562 -56.089844 L 14.03125 -56.089844 C 13.410156 -56.089844 12.519531 -56.132812 11.355469 -56.214844 L 6.445312 -56.566406 L 6.664062 -59.628906 L 6.664062 -56.558594 C 6.226562 -56.558594 5.785156 -56.585938 5.347656 -56.640625 C 4.960938 -56.6875 4.539062 -56.757812 4.074219 -56.851562 L 4.675781 -59.859375 L 7.746094 -59.910156 L 7.804688 -56.183594 L 7.980469 -47.53125 L 8.210938 -35.832031 L 8.445312 -22.785156 L 8.621094 -10.261719 C 8.660156 -6.3125 8.679688 -2.894531 8.679688 0 Z M 8.679688 0 "/></g></g><g style="fill:#fffbfb;fill-opacity:1;"><g transform="translate(384.799776, 314.882927)"><path style="stroke:none" d="M 35.234375 3.300781 L 25.53125 3.066406 L 15.65625 2.832031 L 15.601562 2.828125 C 14.339844 2.753906 13.074219 2.71875 11.808594 2.71875 L 5.410156 2.71875 L 4.847656 0.359375 C 4.441406 -1.351562 4.035156 -3.449219 3.632812 -5.941406 C 3.246094 -8.34375 2.839844 -10.769531 2.414062 -13.210938 C 2.003906 -15.546875 1.585938 -17.433594 1.152344 -18.878906 L 0.703125 -20.371094 L 10.535156 -33.308594 L 12.976562 -31.449219 L 10.378906 -33.082031 C 12.925781 -37.144531 15.65625 -41.046875 18.5625 -44.789062 C 21.253906 -48.257812 23.484375 -51.980469 25.253906 -55.964844 L 28.058594 -54.71875 L 28.179688 -51.648438 L 22.125 -51.414062 L 16.144531 -51.535156 L 15.988281 -51.554688 C 14.269531 -51.769531 12.726562 -51.859375 11.359375 -51.824219 C 9.816406 -51.785156 8.015625 -51.765625 5.960938 -51.765625 L 5.960938 -54.832031 L 6.253906 -51.777344 L 0.4375 -51.226562 L 0.4375 -54.601562 C 0.4375 -55.738281 0.476562 -57.203125 0.558594 -59.003906 L 0.792969 -64.4375 C 0.871094 -66.316406 0.949219 -68 1.027344 -69.492188 C 1.101562 -70.917969 1.140625 -71.878906 1.140625 -72.371094 L 1.140625 -75.441406 L 4.210938 -75.441406 C 6.664062 -75.441406 8.417969 -75.421875 9.472656 -75.378906 C 10.628906 -75.335938 11.492188 -75.261719 12.066406 -75.15625 C 12.425781 -75.089844 12.917969 -75.023438 13.550781 -74.953125 C 14.160156 -74.886719 15.335938 -74.832031 17.078125 -74.796875 C 18.886719 -74.757812 21.691406 -74.738281 25.488281 -74.738281 C 27.757812 -74.738281 30.027344 -74.8125 32.296875 -74.964844 C 34.597656 -75.121094 36.863281 -75.3125 39.085938 -75.539062 L 40.484375 -75.6875 L 41.507812 -74.71875 C 43.089844 -73.226562 44.667969 -71.265625 46.242188 -68.839844 C 47.675781 -66.628906 49.09375 -64.476562 50.488281 -62.382812 C 51.800781 -60.417969 52.945312 -58.910156 53.921875 -57.863281 L 55.417969 -56.261719 L 53.449219 -52.570312 C 51.207031 -48.484375 48.769531 -44.527344 46.140625 -40.703125 C 43.59375 -37 41.144531 -33.257812 38.792969 -29.476562 C 36.5 -25.796875 34.492188 -21.890625 32.761719 -17.757812 L 29.929688 -18.941406 L 29.75 -22.003906 C 31.105469 -22.082031 32.417969 -22.144531 33.691406 -22.183594 C 34.972656 -22.222656 36.25 -22.242188 37.53125 -22.242188 C 39.769531 -22.242188 41.988281 -22.183594 44.1875 -22.0625 C 46.347656 -21.945312 48.527344 -21.808594 50.726562 -21.652344 L 53.59375 -21.445312 L 53.441406 2.484375 L 50.039062 2.484375 L 50.039062 -0.585938 L 50.277344 2.476562 C 49.292969 2.550781 48.269531 2.644531 47.210938 2.757812 C 46.082031 2.878906 44.957031 2.980469 43.828125 3.0625 L 43.761719 3.066406 L 35.316406 3.304688 Z M 35.382812 -2.835938 L 35.308594 0.234375 L 35.222656 -2.835938 L 43.523438 -3.066406 L 43.609375 0 L 43.390625 -3.0625 C 44.445312 -3.136719 45.5 -3.230469 46.554688 -3.34375 C 47.679688 -3.464844 48.761719 -3.5625 49.804688 -3.644531 L 49.921875 -3.652344 L 50.390625 -3.652344 L 50.390625 -0.585938 L 47.320312 -0.605469 L 47.4375 -18.609375 L 50.507812 -18.589844 L 50.289062 -15.527344 C 48.125 -15.683594 45.976562 -15.820312 43.851562 -15.933594 C 41.765625 -16.046875 39.65625 -16.105469 37.53125 -16.105469 C 36.316406 -16.105469 35.101562 -16.085938 33.882812 -16.046875 C 32.664062 -16.011719 31.40625 -15.953125 30.109375 -15.875 L 25.203125 -15.589844 L 27.097656 -20.125 C 28.957031 -24.5625 31.117188 -28.761719 33.578125 -32.722656 C 35.980469 -36.582031 38.480469 -40.398438 41.082031 -44.179688 C 43.59375 -47.835938 45.914062 -51.597656 48.035156 -55.460938 L 48.96875 -57.214844 L 51.675781 -55.769531 L 49.433594 -53.675781 C 48.226562 -54.964844 46.878906 -56.734375 45.382812 -58.976562 C 43.972656 -61.09375 42.542969 -63.265625 41.09375 -65.496094 C 39.785156 -67.511719 38.519531 -69.101562 37.292969 -70.257812 L 39.402344 -72.488281 L 39.714844 -69.433594 C 37.417969 -69.199219 35.082031 -69 32.707031 -68.839844 C 30.300781 -68.679688 27.894531 -68.601562 25.488281 -68.601562 C 21.648438 -68.601562 18.800781 -68.621094 16.945312 -68.660156 C 15.023438 -68.699219 13.664062 -68.765625 12.871094 -68.851562 C 12.101562 -68.9375 11.464844 -69.027344 10.96875 -69.117188 C 10.679688 -69.167969 10.105469 -69.210938 9.234375 -69.246094 C 8.261719 -69.285156 6.585938 -69.300781 4.210938 -69.300781 L 4.210938 -72.371094 L 7.277344 -72.371094 C 7.277344 -71.773438 7.238281 -70.703125 7.15625 -69.171875 C 7.078125 -67.699219 7.003906 -66.035156 6.925781 -64.171875 L 6.691406 -58.730469 C 6.613281 -57.023438 6.578125 -55.644531 6.578125 -54.601562 L 3.507812 -54.601562 L 3.214844 -57.65625 L 5.816406 -57.902344 L 5.960938 -57.902344 C 7.964844 -57.902344 9.710938 -57.921875 11.203125 -57.960938 C 12.878906 -58.003906 14.726562 -57.898438 16.75 -57.644531 L 16.367188 -54.601562 L 16.429688 -57.667969 L 22.160156 -57.550781 L 22.097656 -54.484375 L 21.976562 -57.550781 L 32.867188 -57.976562 L 30.863281 -53.46875 C 28.894531 -49.035156 26.40625 -44.886719 23.410156 -41.027344 C 20.628906 -37.441406 18.015625 -33.707031 15.578125 -29.820312 L 15.503906 -29.703125 L 6.535156 -17.902344 L 4.09375 -19.757812 L 7.03125 -20.640625 C 7.535156 -18.964844 8.011719 -16.839844 8.460938 -14.265625 C 8.890625 -11.796875 9.300781 -9.347656 9.695312 -6.917969 C 10.070312 -4.578125 10.445312 -2.625 10.820312 -1.0625 L 7.832031 -0.351562 L 7.832031 -3.417969 L 11.808594 -3.417969 C 13.195312 -3.417969 14.578125 -3.378906 15.964844 -3.296875 L 15.785156 -0.234375 L 15.855469 -3.300781 L 25.679688 -3.066406 Z M 35.382812 -2.835938 "/></g></g><g style="fill:#fffbfb;fill-opacity:1;"><g transform="translate(439.984711, 314.882927)"><path style="stroke:none" d="M 19.695312 2.585938 C 17.3125 2.355469 14.929688 2.164062 12.546875 2.011719 C 10.164062 1.855469 7.742188 1.742188 5.28125 1.664062 L 5.378906 -1.402344 L 5.378906 1.667969 L -0.167969 1.667969 L 0.488281 -1.953125 C 0.796875 -3.65625 1.1875 -5.867188 1.652344 -8.585938 L 3.113281 -17.285156 L 4.632812 -26.289062 L 5.980469 -34.023438 L 6.796875 -38.753906 C 6.960938 -39.65625 7.261719 -41.136719 7.695312 -43.191406 C 8.128906 -45.246094 8.660156 -47.589844 9.292969 -50.226562 L 11.160156 -58.167969 C 11.789062 -60.875 12.398438 -63.371094 12.988281 -65.65625 L 14.839844 -72.90625 L 21.90625 -73.890625 L 22.332031 -70.851562 L 21.585938 -73.828125 C 22.363281 -74.023438 23.257812 -74.167969 24.273438 -74.257812 L 28.257812 -74.609375 L 38.296875 -75.523438 L 39.117188 -73.332031 C 39.566406 -72.132812 40.40625 -70.113281 41.632812 -67.277344 C 42.871094 -64.414062 44.300781 -61.222656 45.929688 -57.699219 C 47.570312 -54.140625 49.152344 -50.664062 50.679688 -47.261719 L 54.476562 -38.785156 C 55.984375 -35.214844 57.25 -32.128906 58.273438 -29.535156 C 59.292969 -26.953125 60.210938 -24.585938 61.03125 -22.433594 C 61.871094 -20.238281 62.6875 -17.90625 63.484375 -15.441406 L 60.5625 -14.496094 L 63.445312 -15.554688 C 64.304688 -13.207031 64.953125 -11.421875 65.382812 -10.203125 C 65.828125 -8.957031 66.132812 -8.054688 66.300781 -7.507812 C 66.472656 -6.949219 66.605469 -6.488281 66.695312 -6.121094 L 67.648438 -2.308594 L 63.71875 -2.308594 C 64.046875 -2.308594 64.347656 -2.378906 64.625 -2.515625 L 64.375 -2.390625 L 64.109375 -2.316406 C 62.289062 -1.78125 60.835938 -1.332031 59.75 -0.957031 C 58.570312 -0.550781 57.40625 -0.183594 56.261719 0.144531 C 55.089844 0.480469 53.492188 0.851562 51.460938 1.253906 L 49.316406 1.683594 L 48.210938 -0.203125 C 46.890625 -2.453125 45.941406 -4.0625 45.363281 -5.027344 C 44.789062 -5.984375 44.40625 -6.613281 44.222656 -6.910156 C 44.007812 -7.253906 43.808594 -7.582031 43.632812 -7.890625 C 43.433594 -8.242188 43.097656 -8.925781 42.632812 -9.945312 C 42.210938 -10.863281 41.460938 -12.441406 40.378906 -14.683594 L 40.339844 -14.757812 L 38.554688 -19.046875 L 41.386719 -20.226562 L 42.359375 -17.316406 C 41.9375 -17.175781 40.890625 -16.996094 39.214844 -16.773438 L 34.085938 -16.074219 C 32.121094 -15.800781 30.289062 -15.5625 28.589844 -15.367188 C 27.019531 -15.183594 25.933594 -15.023438 25.335938 -14.890625 L 24.667969 -17.886719 L 26.839844 -15.71875 C 26.941406 -15.820312 27.003906 -15.894531 27.03125 -15.941406 C 26.976562 -15.84375 26.910156 -15.695312 26.828125 -15.503906 C 26.613281 -14.992188 26.363281 -14.277344 26.082031 -13.359375 C 25.480469 -11.40625 24.894531 -9.195312 24.328125 -6.734375 C 23.761719 -4.28125 23.328125 -2.042969 23.027344 -0.0195312 L 22.601562 2.867188 Z M 20.289062 -3.523438 L 19.992188 -0.46875 L 16.957031 -0.917969 C 17.28125 -3.101562 17.742188 -5.5 18.347656 -8.113281 C 18.949219 -10.71875 19.570312 -13.070312 20.214844 -15.167969 C 20.988281 -17.679688 21.75 -19.308594 22.5 -20.058594 L 23.132812 -20.691406 L 24.003906 -20.882812 C 24.808594 -21.0625 26.101562 -21.253906 27.878906 -21.460938 C 29.53125 -21.65625 31.324219 -21.886719 33.257812 -22.15625 L 38.414062 -22.859375 C 39.703125 -23.03125 40.371094 -23.121094 40.417969 -23.136719 L 43.125 -24.039062 L 45.976562 -17.199219 L 43.140625 -16.015625 L 45.90625 -17.351562 C 47.007812 -15.074219 47.773438 -13.457031 48.210938 -12.503906 C 48.601562 -11.652344 48.851562 -11.128906 48.964844 -10.933594 C 49.097656 -10.695312 49.253906 -10.4375 49.425781 -10.160156 C 49.632812 -9.832031 50.03125 -9.175781 50.625 -8.183594 C 51.214844 -7.203125 52.175781 -5.574219 53.507812 -3.304688 L 50.859375 -1.753906 L 50.257812 -4.761719 C 52.125 -5.136719 53.5625 -5.46875 54.574219 -5.757812 C 55.613281 -6.054688 56.671875 -6.386719 57.75 -6.757812 C 58.925781 -7.164062 60.472656 -7.648438 62.390625 -8.207031 L 63.25 -5.261719 L 61.878906 -8.007812 C 62.46875 -8.300781 63.082031 -8.445312 63.71875 -8.445312 L 63.71875 -5.378906 L 60.742188 -4.632812 C 60.675781 -4.890625 60.574219 -5.25 60.433594 -5.703125 C 60.292969 -6.167969 60.011719 -6.984375 59.597656 -8.152344 C 59.175781 -9.351562 58.535156 -11.113281 57.679688 -13.441406 L 57.660156 -13.496094 L 57.640625 -13.554688 C 56.878906 -15.921875 56.097656 -18.148438 55.296875 -20.242188 C 54.484375 -22.375 53.570312 -24.722656 52.5625 -27.285156 C 51.558594 -29.835938 50.328125 -32.832031 48.875 -36.273438 L 45.078125 -44.75 C 43.5625 -48.132812 41.988281 -51.589844 40.355469 -55.125 C 38.707031 -58.695312 37.257812 -61.933594 36 -64.839844 C 34.730469 -67.769531 33.855469 -69.882812 33.371094 -71.175781 L 36.242188 -72.253906 L 36.523438 -69.199219 L 28.796875 -68.496094 L 24.832031 -68.144531 C 24.128906 -68.082031 23.546875 -67.992188 23.074219 -67.875 L 22.917969 -67.835938 L 17.726562 -67.109375 L 17.304688 -70.148438 L 20.277344 -69.390625 L 18.929688 -64.121094 C 18.351562 -61.882812 17.753906 -59.433594 17.132812 -56.761719 L 15.261719 -48.800781 C 14.644531 -46.214844 14.125 -43.921875 13.699219 -41.921875 C 13.277344 -39.925781 12.992188 -38.519531 12.84375 -37.707031 L 12.027344 -32.96875 L 10.683594 -25.269531 L 9.164062 -16.269531 L 7.703125 -7.546875 C 7.230469 -4.808594 6.839844 -2.578125 6.527344 -0.855469 L 3.507812 -1.402344 L 3.507812 -4.472656 L 5.425781 -4.472656 L 5.472656 -4.46875 C 8.003906 -4.390625 10.492188 -4.273438 12.941406 -4.113281 C 15.390625 -3.957031 17.839844 -3.757812 20.289062 -3.523438 Z M 26.207031 -32.011719 L 28.132812 -32.371094 L 36.722656 -33.667969 L 37.179688 -30.632812 L 34.28125 -29.617188 C 33.742188 -31.15625 33.050781 -33.066406 32.199219 -35.347656 C 31.324219 -37.699219 30.46875 -40.203125 29.632812 -42.867188 C 28.78125 -45.589844 28.109375 -48.214844 27.617188 -50.742188 L 30.632812 -51.328125 L 33.65625 -50.804688 L 29.796875 -28.472656 L 26.773438 -28.996094 Z M 22.996094 -25.164062 L 27.609375 -51.847656 L 33.644531 -51.910156 C 34.089844 -49.605469 34.707031 -47.203125 35.488281 -44.703125 C 36.292969 -42.144531 37.113281 -39.738281 37.949219 -37.492188 C 38.816406 -35.171875 39.523438 -33.222656 40.074219 -31.644531 L 41.300781 -28.148438 L 29.101562 -26.3125 L 28.644531 -29.347656 L 29.210938 -26.328125 L 27.339844 -25.980469 Z M 22.996094 -25.164062 "/></g></g><g style="fill:#fffbfb;fill-opacity:1;"><g transform="translate(507.212096, 314.882927)"><path style="stroke:none" d="M 17.949219 3.042969 L 16.195312 2.808594 C 14.726562 2.625 13.722656 2.433594 13.1875 2.230469 C 13.625 2.394531 14.136719 2.40625 14.714844 2.261719 C 15.761719 2 16.46875 1.363281 16.835938 0.347656 C 17.117188 -0.421875 17.09375 -1.179688 16.761719 -1.921875 C 16.617188 -2.246094 16.429688 -2.523438 16.199219 -2.753906 L 22.59375 3.636719 L 13.628906 2.457031 C 10.738281 2.078125 8.6875 1.851562 7.472656 1.777344 C 6.460938 1.714844 5.351562 1.8125 4.140625 2.066406 L 0.4375 2.847656 L 0.4375 -7.890625 C 0.4375 -9.597656 0.457031 -11.109375 0.5 -12.425781 L 0.613281 -16.914062 C 0.652344 -18.601562 0.671875 -20.914062 0.671875 -23.851562 L 0.671875 -49.546875 C 0.75 -52.101562 0.808594 -54.890625 0.847656 -57.914062 C 0.886719 -60.980469 0.964844 -64.007812 1.082031 -66.996094 C 1.203125 -70.027344 1.382812 -72.667969 1.625 -74.917969 L 1.804688 -76.585938 L 4.910156 -78.140625 L 6.28125 -77.453125 C 6.007812 -77.59375 5.707031 -77.660156 5.378906 -77.660156 C 6.382812 -77.660156 7.222656 -77.324219 7.898438 -76.644531 L 5.730469 -74.476562 L 6.109375 -77.519531 C 6.757812 -77.441406 7.875 -77.28125 9.457031 -77.042969 C 11.042969 -76.804688 12.84375 -76.507812 14.855469 -76.152344 C 16.832031 -75.804688 18.753906 -75.476562 20.613281 -75.164062 C 22.453125 -74.859375 23.9375 -74.628906 25.074219 -74.476562 C 28.757812 -74.019531 32.464844 -73.632812 36.203125 -73.324219 C 39.964844 -73.015625 43.703125 -72.742188 47.425781 -72.511719 L 50.304688 -72.332031 L 50.304688 -69.449219 C 50.304688 -68.847656 50.324219 -67.722656 50.359375 -66.070312 C 50.398438 -64.371094 50.421875 -62.515625 50.421875 -60.503906 L 50.421875 -52.496094 L 50.160156 -49.125 L 48.605469 -48.347656 C 48.019531 -48.054688 47.230469 -47.90625 46.242188 -47.90625 C 45.6875 -47.90625 44.53125 -47.945312 42.769531 -48.027344 L 42.730469 -48.027344 L 42.691406 -48.03125 C 40.457031 -48.191406 38.1875 -48.410156 35.875 -48.6875 C 33.738281 -48.945312 31.601562 -49.074219 29.464844 -49.074219 C 28.777344 -49.074219 27.863281 -49.023438 26.710938 -48.914062 C 25.480469 -48.796875 24.347656 -48.683594 23.3125 -48.566406 C 22.148438 -48.4375 21.429688 -48.375 21.160156 -48.375 L 21.160156 -51.441406 L 24.226562 -51.613281 C 24.308594 -50.152344 24.347656 -48.636719 24.347656 -47.058594 L 24.347656 -41.269531 L 21.277344 -41.269531 L 21.277344 -44.339844 C 21.6875 -44.339844 22.5625 -44.277344 23.902344 -44.152344 C 25.125 -44.035156 26.5625 -43.921875 28.214844 -43.808594 L 33.128906 -43.457031 C 34.742188 -43.339844 36.019531 -43.238281 36.964844 -43.160156 L 40.738281 -42.847656 L 39.652344 -39.21875 C 39.464844 -38.597656 39.265625 -37.488281 39.050781 -35.898438 C 38.820312 -34.15625 38.589844 -32.320312 38.355469 -30.382812 C 38.125 -28.453125 37.933594 -26.722656 37.777344 -25.183594 C 37.632812 -23.726562 37.558594 -22.851562 37.558594 -22.566406 L 37.558594 -19.261719 L 31.332031 -19.261719 C 29.957031 -19.261719 28.5 -19.242188 26.96875 -19.203125 L 22.828125 -19.085938 C 21.59375 -19.046875 20.84375 -19.027344 20.578125 -19.027344 L 20.226562 -19.027344 L 20.226562 -22.097656 L 23.296875 -22.097656 C 23.296875 -21.46875 23.195312 -19.90625 22.992188 -17.40625 L 22.351562 -9.117188 C 22.113281 -5.960938 21.835938 -3.035156 21.519531 -0.34375 L 18.472656 -0.703125 L 15.496094 -1.445312 C 15.554688 -1.679688 15.601562 -1.847656 15.632812 -1.949219 C 15.667969 -2.054688 15.710938 -2.15625 15.753906 -2.257812 C 15.855469 -2.476562 15.980469 -2.683594 16.128906 -2.875 C 16.4375 -3.269531 16.820312 -3.574219 17.28125 -3.785156 C 17.839844 -4.039062 18.421875 -4.117188 19.027344 -4.019531 C 19.6875 -3.917969 20.25 -3.628906 20.71875 -3.160156 C 21.445312 -2.433594 21.734375 -1.5625 21.585938 -0.542969 C 21.578125 -0.46875 21.5625 -0.378906 21.539062 -0.273438 L 21.480469 0.015625 L 18.472656 -0.585938 L 21.542969 -0.585938 C 21.542969 -0.0234375 21.414062 0.511719 21.160156 1.023438 C 21.335938 0.667969 21.425781 0.328125 21.425781 0 L 21.425781 3.503906 Z M 18.761719 -3.042969 L 18.355469 0 L 15.285156 0 C 15.285156 -0.640625 15.414062 -1.214844 15.667969 -1.722656 C 15.492188 -1.371094 15.402344 -0.988281 15.402344 -0.585938 L 15.402344 -0.886719 L 15.523438 -1.480469 C 15.523438 -1.488281 15.523438 -1.496094 15.523438 -1.496094 C 15.519531 -1.472656 15.515625 -1.441406 15.511719 -1.410156 C 15.367188 -0.40625 15.65625 0.457031 16.378906 1.179688 C 16.851562 1.652344 17.414062 1.9375 18.070312 2.042969 C 18.679688 2.136719 19.261719 2.058594 19.820312 1.804688 C 20.277344 1.597656 20.664062 1.292969 20.972656 0.894531 C 21.121094 0.707031 21.242188 0.5 21.34375 0.28125 C 21.386719 0.1875 21.425781 0.0898438 21.457031 -0.0078125 C 21.472656 -0.046875 21.480469 -0.0859375 21.492188 -0.117188 L 21.488281 -0.105469 C 21.480469 -0.0742188 21.464844 -0.0234375 21.449219 0.0429688 L 15.425781 -1.058594 C 15.730469 -3.667969 16 -6.511719 16.230469 -9.589844 L 16.875 -17.902344 C 17.0625 -20.234375 17.15625 -21.632812 17.15625 -22.097656 L 17.15625 -25.167969 L 20.578125 -25.167969 C 20.777344 -25.167969 21.46875 -25.183594 22.652344 -25.222656 L 26.8125 -25.339844 C 28.398438 -25.378906 29.90625 -25.398438 31.332031 -25.398438 L 34.492188 -25.398438 L 34.492188 -22.332031 L 31.421875 -22.332031 L 31.421875 -22.566406 C 31.421875 -23.054688 31.503906 -24.132812 31.671875 -25.792969 C 31.828125 -27.371094 32.023438 -29.144531 32.261719 -31.113281 C 32.496094 -33.078125 32.734375 -34.941406 32.96875 -36.707031 C 33.222656 -38.625 33.492188 -40.046875 33.773438 -40.984375 L 36.710938 -40.101562 L 36.457031 -37.042969 C 35.53125 -37.121094 34.277344 -37.21875 32.691406 -37.332031 L 27.789062 -37.683594 C 26.085938 -37.800781 24.601562 -37.921875 23.332031 -38.039062 C 22.179688 -38.148438 21.496094 -38.203125 21.277344 -38.203125 L 18.210938 -38.203125 L 18.210938 -47.058594 C 18.210938 -48.523438 18.171875 -49.925781 18.097656 -51.273438 L 17.917969 -54.511719 L 21.160156 -54.511719 C 21.203125 -54.511719 21.695312 -54.5625 22.636719 -54.667969 C 23.703125 -54.789062 24.871094 -54.90625 26.136719 -55.023438 C 27.480469 -55.152344 28.585938 -55.214844 29.464844 -55.214844 C 31.847656 -55.214844 34.230469 -55.070312 36.613281 -54.78125 C 38.824219 -54.515625 40.996094 -54.304688 43.125 -54.152344 L 42.910156 -51.09375 L 43.046875 -54.160156 C 44.714844 -54.082031 45.78125 -54.042969 46.242188 -54.042969 C 46.375 -54.042969 46.464844 -54.046875 46.511719 -54.054688 C 46.320312 -54.03125 46.105469 -53.957031 45.863281 -53.835938 L 47.234375 -51.09375 L 44.175781 -51.328125 L 44.292969 -52.847656 L 47.351562 -52.613281 L 44.28125 -52.613281 L 44.28125 -60.503906 C 44.28125 -62.46875 44.261719 -64.277344 44.222656 -65.929688 C 44.183594 -67.628906 44.164062 -68.800781 44.164062 -69.449219 L 47.234375 -69.449219 L 47.042969 -66.386719 C 43.28125 -66.621094 39.5 -66.894531 35.699219 -67.207031 C 31.875 -67.523438 28.0625 -67.917969 24.265625 -68.394531 C 23.0625 -68.554688 21.507812 -68.792969 19.605469 -69.109375 C 17.722656 -69.421875 15.785156 -69.757812 13.789062 -70.109375 C 11.828125 -70.453125 10.078125 -70.742188 8.546875 -70.972656 C 7.011719 -71.203125 5.945312 -71.355469 5.347656 -71.429688 L 4.304688 -71.5625 L 3.558594 -72.304688 C 4.078125 -71.785156 4.6875 -71.523438 5.378906 -71.523438 C 4.738281 -71.523438 4.125 -71.671875 3.539062 -71.964844 L 4.910156 -74.710938 L 6.28125 -71.964844 L 6.050781 -71.847656 L 4.675781 -74.59375 L 7.726562 -74.265625 C 7.5 -72.152344 7.332031 -69.648438 7.21875 -66.753906 C 7.101562 -63.820312 7.023438 -60.847656 6.984375 -57.835938 C 6.945312 -54.777344 6.886719 -51.953125 6.808594 -49.363281 L 3.742188 -49.457031 L 6.808594 -49.457031 L 6.808594 -23.851562 C 6.808594 -20.867188 6.789062 -18.5 6.75 -16.757812 L 6.632812 -12.242188 C 6.59375 -10.988281 6.578125 -9.535156 6.578125 -7.890625 L 6.578125 -0.933594 L 3.507812 -0.933594 L 2.875 -3.9375 C 4.625 -4.308594 6.28125 -4.445312 7.84375 -4.347656 C 9.203125 -4.265625 11.398438 -4.027344 14.429688 -3.628906 L 14.03125 -0.585938 L 11.859375 1.585938 C 11.550781 1.277344 11.316406 0.941406 11.152344 0.570312 C 10.8125 -0.195312 10.785156 -0.96875 11.070312 -1.75 C 11.441406 -2.78125 12.164062 -3.425781 13.226562 -3.695312 C 13.882812 -3.859375 14.589844 -3.800781 15.339844 -3.515625 C 15.425781 -3.484375 15.984375 -3.402344 17.007812 -3.277344 Z M 18.761719 -3.042969 "/></g></g><g style="fill:#fffbfb;fill-opacity:1;"><g transform="translate(554.563484, 314.882927)"><path style="stroke:none" d="M 26.476562 2.9375 L 21.683594 2.46875 L 21.980469 -0.585938 L 21.867188 2.480469 L 14.890625 2.222656 L 10.808594 0.183594 L 6.8125 -3.8125 L 4.859375 -6.972656 L 2.660156 -15.632812 L 2.660156 -16.132812 L 5.730469 -16.132812 L 2.703125 -15.617188 C 2.148438 -18.859375 1.734375 -21.59375 1.457031 -23.820312 C 1.179688 -26.039062 0.960938 -28.019531 0.800781 -29.769531 C 0.640625 -31.554688 0.539062 -33.335938 0.496094 -35.121094 C 0.457031 -36.859375 0.4375 -38.871094 0.4375 -41.15625 C 0.4375 -42.195312 0.457031 -43.449219 0.496094 -44.921875 C 0.539062 -46.398438 0.636719 -48.421875 0.796875 -50.988281 C 0.949219 -53.5 1.105469 -56.769531 1.257812 -60.796875 L 4.324219 -60.679688 L 1.257812 -60.679688 L 1.257812 -61.519531 L 1.582031 -62.167969 C 1.441406 -61.894531 1.375 -61.570312 1.375 -61.207031 C 1.375 -62.171875 1.710938 -62.992188 2.390625 -63.667969 L 4.558594 -61.496094 L 1.492188 -61.496094 L 1.492188 -64.871094 L 4.738281 -64.679688 C 6.09375 -64.597656 7.449219 -64.5 8.804688 -64.378906 C 10.105469 -64.265625 11.363281 -64.167969 12.585938 -64.09375 L 12.394531 -61.03125 L 12.515625 -64.097656 C 14.488281 -64.019531 16.417969 -63.917969 18.3125 -63.800781 C 20.160156 -63.6875 22.046875 -63.589844 23.972656 -63.511719 L 26.921875 -63.394531 L 26.921875 -59.058594 L 26.019531 -58.160156 C 26.542969 -58.679688 26.804688 -59.265625 26.804688 -59.917969 L 26.804688 -59.710938 L 20.664062 -59.710938 L 20.664062 -59.746094 L 23.734375 -59.746094 L 26.800781 -59.65625 L 26.449219 -47.378906 L 26.21875 -39.371094 C 26.136719 -36.59375 25.9375 -33.800781 25.613281 -30.984375 L 24.914062 -24.679688 C 24.683594 -22.6875 24.453125 -20.152344 24.222656 -17.074219 L 21.160156 -17.304688 L 23.652344 -19.097656 L 27.863281 -13.25 L 25.371094 -11.457031 L 25.371094 -14.527344 C 27.523438 -14.527344 29.632812 -14.636719 31.707031 -14.859375 L 32.035156 -11.808594 L 31.542969 -14.839844 L 35.871094 -15.539062 L 36.359375 -12.511719 L 33.46875 -13.539062 L 35.339844 -18.800781 L 38.230469 -17.769531 L 35.1875 -18.152344 L 35.304688 -19.085938 L 35.996094 -25.691406 L 39.050781 -25.371094 L 35.980469 -25.351562 L 35.863281 -42.769531 L 38.933594 -42.792969 L 35.90625 -42.28125 L 34.34375 -51.535156 L 34.34375 -51.792969 C 34.34375 -52.894531 34.308594 -53.996094 34.234375 -55.097656 C 34.160156 -56.191406 34.050781 -57.242188 33.90625 -58.257812 L 33.5 -61.113281 L 39.765625 -62.410156 L 39.816406 -62.417969 C 42.152344 -62.820312 44.175781 -63.105469 45.890625 -63.265625 C 47.625 -63.433594 49.59375 -63.515625 51.792969 -63.515625 L 54.4375 -63.515625 L 55.53125 -56.222656 C 55.925781 -53.535156 56.183594 -51.671875 56.304688 -50.625 C 56.433594 -49.496094 56.5 -48.792969 56.5 -48.519531 L 56.5 -48.332031 L 50.363281 -48.332031 L 50.363281 -48.34375 C 50.363281 -48.410156 50.363281 -48.476562 50.367188 -48.539062 C 50.375 -48.664062 50.390625 -48.789062 50.414062 -48.914062 C 50.457031 -49.144531 50.527344 -49.363281 50.621094 -49.578125 C 50.761719 -49.902344 50.953125 -50.191406 51.191406 -50.449219 C 51.796875 -51.09375 52.542969 -51.417969 53.429688 -51.417969 C 54.242188 -51.417969 54.945312 -51.140625 55.535156 -50.582031 C 55.761719 -50.367188 55.953125 -50.125 56.105469 -49.851562 C 56.210938 -49.664062 56.296875 -49.46875 56.359375 -49.265625 C 56.394531 -49.148438 56.425781 -49.03125 56.449219 -48.914062 C 56.460938 -48.851562 56.46875 -48.789062 56.476562 -48.726562 C 56.484375 -48.679688 56.488281 -48.628906 56.492188 -48.570312 C 56.496094 -48.527344 56.5 -48.46875 56.507812 -48.386719 C 56.515625 -48.246094 56.53125 -48.027344 56.550781 -47.730469 C 56.585938 -47.195312 56.71875 -45.9375 56.945312 -43.960938 L 56.953125 -43.898438 L 56.960938 -43.832031 C 57.195312 -40.613281 57.390625 -37.351562 57.546875 -34.050781 C 57.707031 -30.730469 57.785156 -27.40625 57.785156 -24.085938 L 57.785156 -23.707031 L 57.167969 -21.234375 C 56.820312 -19.84375 56.433594 -18.253906 56.007812 -16.472656 C 55.5625 -14.613281 55.132812 -13.023438 54.722656 -11.710938 L 53.605469 -8.210938 L 53.234375 -7.761719 C 51.847656 -6.066406 50.886719 -4.878906 50.359375 -4.195312 C 49.699219 -3.34375 49.121094 -2.703125 48.628906 -2.265625 C 48.058594 -1.757812 47.273438 -1.269531 46.269531 -0.792969 C 45.59375 -0.472656 44.394531 0.175781 42.664062 1.152344 L 42.066406 1.488281 L 41.382812 1.539062 C 38.277344 1.773438 35.621094 1.988281 33.414062 2.179688 C 31.257812 2.371094 29.199219 2.613281 27.242188 2.917969 L 26.859375 2.976562 Z M 27.070312 -3.171875 L 26.773438 -0.117188 L 26.308594 -3.148438 C 28.398438 -3.472656 30.589844 -3.734375 32.878906 -3.933594 C 35.113281 -4.128906 37.792969 -4.34375 40.925781 -4.582031 L 41.15625 -1.519531 L 39.644531 -4.191406 C 41.5 -5.242188 42.832031 -5.957031 43.640625 -6.339844 C 44.117188 -6.566406 44.421875 -6.734375 44.550781 -6.855469 C 44.761719 -7.039062 45.082031 -7.410156 45.511719 -7.964844 C 46.074219 -8.683594 47.0625 -9.914062 48.484375 -11.648438 L 50.859375 -9.703125 L 47.933594 -10.640625 L 48.863281 -13.542969 C 49.234375 -14.722656 49.625 -16.175781 50.035156 -17.902344 C 50.46875 -19.703125 50.859375 -21.3125 51.214844 -22.726562 L 51.738281 -24.828125 L 54.71875 -24.085938 L 51.648438 -24.085938 C 51.648438 -27.308594 51.570312 -30.535156 51.417969 -33.757812 C 51.261719 -37.007812 51.070312 -40.214844 50.835938 -43.386719 L 53.898438 -43.609375 L 50.847656 -43.257812 C 50.609375 -45.332031 50.46875 -46.6875 50.425781 -47.324219 C 50.40625 -47.609375 50.394531 -47.820312 50.382812 -47.949219 C 50.378906 -48.007812 50.378906 -48.042969 50.375 -48.0625 C 50.378906 -48.035156 50.382812 -48 50.386719 -47.964844 C 50.394531 -47.902344 50.402344 -47.84375 50.414062 -47.78125 C 50.4375 -47.664062 50.464844 -47.546875 50.5 -47.433594 C 50.566406 -47.226562 50.652344 -47.03125 50.757812 -46.84375 C 50.910156 -46.570312 51.101562 -46.328125 51.328125 -46.113281 C 51.917969 -45.558594 52.621094 -45.28125 53.429688 -45.28125 C 54.316406 -45.28125 55.0625 -45.601562 55.671875 -46.25 C 55.910156 -46.507812 56.101562 -46.796875 56.242188 -47.117188 C 56.335938 -47.332031 56.40625 -47.554688 56.449219 -47.78125 C 56.46875 -47.90625 56.484375 -48.03125 56.492188 -48.15625 C 56.496094 -48.21875 56.5 -48.28125 56.5 -48.34375 L 56.5 -48.332031 C 56.5 -47.925781 56.421875 -47.535156 56.265625 -47.160156 C 56.109375 -46.78125 55.886719 -46.449219 55.601562 -46.164062 C 55.3125 -45.875 54.980469 -45.652344 54.605469 -45.496094 C 54.230469 -45.34375 53.835938 -45.265625 53.429688 -45.265625 C 53.023438 -45.265625 52.632812 -45.34375 52.257812 -45.496094 C 51.878906 -45.652344 51.546875 -45.875 51.261719 -46.164062 C 50.972656 -46.449219 50.75 -46.78125 50.59375 -47.160156 C 50.441406 -47.535156 50.363281 -47.925781 50.363281 -48.332031 L 50.363281 -48.519531 C 50.363281 -48.558594 50.308594 -49.027344 50.207031 -49.921875 C 50.09375 -50.902344 49.84375 -52.699219 49.460938 -55.3125 L 48.757812 -59.992188 L 51.792969 -60.445312 L 51.792969 -57.375 C 49.785156 -57.375 48.011719 -57.304688 46.472656 -57.15625 C 44.914062 -57.007812 43.042969 -56.746094 40.859375 -56.367188 L 40.335938 -59.394531 L 40.957031 -56.386719 L 37.566406 -55.6875 L 36.945312 -58.691406 L 39.984375 -59.125 C 40.152344 -57.957031 40.277344 -56.75 40.359375 -55.503906 C 40.441406 -54.269531 40.480469 -53.03125 40.480469 -51.792969 L 37.414062 -51.792969 L 40.4375 -52.304688 L 42 -43.058594 L 42.121094 -25.21875 L 41.394531 -18.324219 L 41.234375 -17.058594 L 38.644531 -9.769531 L 32.445312 -8.765625 L 32.363281 -8.757812 C 30.070312 -8.511719 27.742188 -8.390625 25.371094 -8.390625 L 23.796875 -8.390625 L 18.019531 -16.417969 L 18.101562 -17.53125 C 18.339844 -20.691406 18.574219 -23.300781 18.8125 -25.359375 L 19.515625 -31.683594 C 19.816406 -34.324219 20.007812 -36.945312 20.082031 -39.546875 L 20.316406 -47.554688 L 20.667969 -59.832031 L 26.804688 -59.746094 L 26.804688 -59.710938 C 26.804688 -59.304688 26.726562 -58.914062 26.570312 -58.535156 C 26.414062 -58.160156 26.191406 -57.828125 25.902344 -57.539062 C 25.617188 -57.253906 25.285156 -57.03125 24.910156 -56.875 C 24.53125 -56.71875 24.140625 -56.640625 23.734375 -56.640625 C 23.328125 -56.640625 22.933594 -56.71875 22.558594 -56.875 C 22.183594 -57.03125 21.851562 -57.253906 21.5625 -57.539062 C 21.277344 -57.828125 21.054688 -58.160156 20.898438 -58.535156 C 20.742188 -58.914062 20.664062 -59.304688 20.664062 -59.710938 L 20.664062 -59.917969 C 20.664062 -60.960938 21.003906 -61.820312 21.679688 -62.5 L 23.851562 -60.328125 L 20.78125 -60.328125 L 20.78125 -60.445312 L 23.851562 -60.445312 L 23.726562 -57.378906 C 21.757812 -57.457031 19.824219 -57.554688 17.929688 -57.675781 C 16.082031 -57.789062 14.195312 -57.886719 12.269531 -57.964844 L 12.234375 -57.964844 L 12.203125 -57.96875 C 10.929688 -58.046875 9.617188 -58.144531 8.265625 -58.265625 C 6.96875 -58.378906 5.675781 -58.476562 4.378906 -58.550781 L 4.558594 -61.613281 L 7.628906 -61.613281 L 7.628906 -60.226562 L 6.730469 -59.328125 C 7.25 -59.847656 7.511719 -60.476562 7.511719 -61.207031 C 7.511719 -60.605469 7.363281 -60.011719 7.070312 -59.425781 L 4.324219 -60.796875 L 7.394531 -60.796875 L 7.394531 -60.5625 C 7.234375 -56.484375 7.078125 -53.167969 6.921875 -50.613281 C 6.769531 -48.113281 6.671875 -46.160156 6.632812 -44.753906 C 6.59375 -43.339844 6.578125 -42.140625 6.578125 -41.15625 C 6.578125 -38.917969 6.597656 -36.953125 6.632812 -35.261719 C 6.671875 -33.617188 6.765625 -31.972656 6.914062 -30.324219 C 7.066406 -28.644531 7.277344 -26.730469 7.546875 -24.582031 C 7.8125 -22.445312 8.214844 -19.800781 8.753906 -16.652344 L 8.796875 -16.394531 L 8.796875 -16.015625 L 5.730469 -16.015625 L 8.703125 -16.773438 L 10.691406 -8.9375 L 7.714844 -8.183594 L 10.324219 -9.800781 L 11.847656 -7.34375 L 9.238281 -5.730469 L 11.40625 -7.898438 L 14.796875 -4.507812 L 12.628906 -2.339844 L 14 -5.082031 L 17.039062 -3.5625 L 15.667969 -0.820312 L 15.78125 -3.886719 L 22.1875 -3.648438 Z M 27.070312 -3.171875 "/></g></g><g style="fill:#fffbfb;fill-opacity:1;"><g transform="translate(612.788207, 314.882927)"><path style="stroke:none" d="M 3.480469 1.417969 C 3.402344 -0.394531 3.34375 -2.167969 3.304688 -3.90625 C 3.265625 -5.644531 3.246094 -7.382812 3.246094 -9.121094 L 6.3125 -9.121094 L 3.246094 -9.011719 L 2.777344 -22.164062 C 2.621094 -26.585938 2.503906 -30.988281 2.425781 -35.371094 C 2.347656 -42.117188 2.117188 -48.859375 1.730469 -55.59375 C 1.339844 -62.363281 0.914062 -69.089844 0.445312 -75.78125 L 0.183594 -79.519531 L 3.898438 -79.039062 C 6.210938 -78.742188 9.003906 -78.554688 12.289062 -78.480469 C 15.667969 -78.402344 19.046875 -78.34375 22.425781 -78.304688 C 25.902344 -78.265625 28.890625 -78.125 31.394531 -77.882812 L 31.101562 -74.828125 L 31.261719 -77.890625 C 32.769531 -77.8125 34.511719 -77.691406 36.488281 -77.535156 L 41.742188 -77.125 C 43.21875 -77.015625 44 -76.960938 44.078125 -76.960938 L 44.078125 -73.890625 L 41.90625 -76.0625 C 42.394531 -76.550781 42.976562 -76.847656 43.644531 -76.953125 C 44.269531 -77.054688 44.871094 -76.972656 45.445312 -76.703125 C 45.917969 -76.484375 46.308594 -76.164062 46.625 -75.746094 C 47.019531 -75.21875 47.238281 -74.589844 47.273438 -73.867188 C 47.292969 -73.496094 47.261719 -72.984375 47.179688 -72.339844 C 47.058594 -71.351562 46.855469 -70.070312 46.570312 -68.496094 C 46.304688 -67.003906 46.054688 -65.496094 45.828125 -63.964844 L 44.859375 -57.375 L 42.207031 -57.375 C 39.769531 -57.375 37.621094 -57.394531 35.769531 -57.4375 C 34.054688 -57.472656 32.007812 -57.378906 29.632812 -57.15625 L 26.65625 -56.8125 L 26.304688 -59.859375 L 29.375 -59.859375 C 29.375 -59.65625 29.394531 -58.84375 29.433594 -57.429688 C 29.472656 -55.960938 29.492188 -54.335938 29.492188 -52.554688 L 29.492188 -47.9375 L 26.421875 -47.9375 L 25.917969 -50.964844 C 26.5 -51.058594 27.589844 -51.148438 29.183594 -51.234375 L 34.050781 -51.46875 C 35.921875 -51.550781 37.535156 -51.550781 38.890625 -51.464844 L 41.226562 -51.320312 L 43.457031 -40.609375 L 40.453125 -39.984375 L 43.410156 -40.808594 C 43.824219 -39.3125 44.078125 -38.308594 44.175781 -37.785156 C 44.285156 -37.175781 44.339844 -36.761719 44.339844 -36.535156 C 44.339844 -36.628906 44.335938 -36.714844 44.328125 -36.789062 L 44.332031 -36.769531 C 44.339844 -36.710938 44.351562 -36.621094 44.367188 -36.503906 C 44.398438 -36.285156 44.527344 -35.621094 44.75 -34.507812 L 44.808594 -34.210938 L 44.808594 -33.90625 C 44.808594 -34.078125 44.738281 -34.300781 44.601562 -34.578125 L 46.679688 -30.421875 L 42.042969 -30.140625 C 39.453125 -29.984375 36.886719 -29.847656 34.339844 -29.730469 C 31.824219 -29.613281 29.324219 -29.476562 26.847656 -29.324219 L 26.65625 -32.386719 L 29.726562 -32.386719 C 29.726562 -31.203125 29.78125 -29.730469 29.894531 -27.964844 C 30.011719 -26.109375 30.113281 -24.257812 30.191406 -22.402344 C 30.269531 -20.527344 30.308594 -18.90625 30.308594 -17.539062 L 27.242188 -17.539062 L 26.703125 -20.558594 C 29.046875 -20.976562 31.589844 -21.207031 34.328125 -21.25 C 36.929688 -21.289062 39.457031 -21.289062 41.90625 -21.25 C 44.214844 -21.210938 46.214844 -21.265625 47.902344 -21.414062 L 48.144531 -21.433594 L 48.386719 -21.417969 C 49.203125 -21.359375 49.671875 -21.339844 49.789062 -21.367188 C 51.710938 -21.75 53.042969 -21.203125 53.777344 -19.726562 C 54.035156 -19.21875 54.160156 -18.390625 54.160156 -17.246094 C 54.160156 -16.734375 54.265625 -15.777344 54.476562 -14.367188 C 54.71875 -12.847656 54.917969 -11.300781 55.082031 -9.726562 L 55.882812 -1.820312 L 52.582031 -1.726562 C 49.945312 -1.652344 46.839844 -1.402344 43.265625 -0.984375 C 39.539062 -0.550781 36.199219 -0.25 33.253906 -0.09375 L 33.085938 -3.15625 L 33.363281 -0.101562 C 32.546875 -0.0273438 31.261719 0.125 29.507812 0.355469 C 27.726562 0.585938 25.863281 0.839844 23.925781 1.109375 L 18.960938 1.8125 L 16.917969 2.101562 L 16.484375 -0.933594 L 17.085938 2.074219 C 15.113281 2.46875 13.664062 2.746094 12.742188 2.90625 C 11.800781 3.070312 11.148438 3.175781 10.785156 3.222656 C 10.714844 3.230469 10.632812 3.25 10.546875 3.28125 C 10.269531 3.386719 9.679688 3.625 8.78125 4.003906 L 8.675781 4.046875 L 8.570312 4.082031 C 8.019531 4.261719 7.347656 4.355469 6.546875 4.355469 L 3.609375 4.355469 Z M 9.613281 1.152344 L 6.546875 1.285156 L 6.546875 -1.78125 C 6.667969 -1.78125 6.757812 -1.785156 6.820312 -1.792969 C 6.78125 -1.789062 6.71875 -1.773438 6.628906 -1.742188 L 7.597656 1.167969 L 6.417969 -1.664062 C 7.386719 -2.066406 8.046875 -2.335938 8.394531 -2.464844 C 8.929688 -2.664062 9.472656 -2.800781 10.023438 -2.871094 C 10.289062 -2.902344 10.84375 -2.992188 11.691406 -3.140625 C 12.5625 -3.292969 13.960938 -3.558594 15.882812 -3.945312 L 15.96875 -3.960938 L 18.101562 -4.265625 L 23.074219 -4.96875 C 25.03125 -5.242188 26.914062 -5.496094 28.714844 -5.730469 C 30.546875 -5.972656 31.914062 -6.132812 32.808594 -6.214844 L 32.867188 -6.21875 L 32.921875 -6.222656 C 35.742188 -6.375 38.953125 -6.660156 42.550781 -7.082031 C 46.304688 -7.519531 49.589844 -7.78125 52.40625 -7.863281 L 52.496094 -4.792969 L 49.441406 -4.484375 L 48.976562 -9.097656 C 48.824219 -10.5625 48.636719 -12.015625 48.40625 -13.457031 C 48.152344 -15.167969 48.023438 -16.429688 48.023438 -17.246094 C 48.023438 -17.523438 48.019531 -17.726562 48.011719 -17.859375 L 48.015625 -17.84375 C 48.054688 -17.558594 48.144531 -17.273438 48.289062 -16.984375 C 48.671875 -16.21875 49.265625 -15.714844 50.070312 -15.464844 C 50.332031 -15.386719 50.589844 -15.34375 50.84375 -15.34375 C 50.921875 -15.34375 50.988281 -15.347656 51.042969 -15.355469 C 51.039062 -15.355469 51.019531 -15.351562 50.992188 -15.347656 C 50.332031 -15.214844 49.316406 -15.195312 47.949219 -15.292969 L 48.167969 -18.355469 L 48.433594 -15.296875 C 46.539062 -15.132812 44.328125 -15.070312 41.804688 -15.113281 C 39.421875 -15.148438 36.960938 -15.148438 34.417969 -15.113281 C 32.011719 -15.074219 29.800781 -14.875 27.78125 -14.515625 L 24.171875 -13.871094 L 24.171875 -17.539062 C 24.171875 -18.820312 24.132812 -20.355469 24.058594 -22.140625 C 23.980469 -23.953125 23.886719 -25.761719 23.769531 -27.570312 C 23.648438 -29.46875 23.585938 -31.074219 23.585938 -32.386719 L 23.585938 -35.269531 L 26.464844 -35.449219 C 28.976562 -35.605469 31.507812 -35.742188 34.054688 -35.859375 C 36.574219 -35.976562 39.113281 -36.113281 41.671875 -36.269531 L 41.855469 -33.203125 L 39.109375 -31.832031 C 38.816406 -32.417969 38.671875 -33.109375 38.671875 -33.90625 L 41.738281 -33.90625 L 38.730469 -33.304688 C 38.484375 -34.527344 38.339844 -35.304688 38.292969 -35.632812 C 38.230469 -36.050781 38.203125 -36.351562 38.203125 -36.535156 C 38.203125 -36.402344 38.210938 -36.277344 38.226562 -36.167969 C 38.222656 -36.179688 38.222656 -36.203125 38.214844 -36.238281 C 38.199219 -36.339844 38.171875 -36.488281 38.136719 -36.6875 C 38.074219 -37.027344 37.859375 -37.851562 37.496094 -39.164062 L 37.46875 -39.261719 L 35.695312 -47.777344 L 38.699219 -48.402344 L 38.507812 -45.339844 C 37.371094 -45.410156 35.984375 -45.410156 34.347656 -45.335938 L 29.507812 -45.105469 C 28.140625 -45.03125 27.28125 -44.96875 26.925781 -44.910156 L 23.355469 -44.3125 L 23.355469 -52.554688 C 23.355469 -54.28125 23.335938 -55.851562 23.296875 -57.265625 C 23.257812 -58.734375 23.238281 -59.601562 23.238281 -59.859375 L 23.238281 -62.597656 L 29.058594 -63.265625 C 31.671875 -63.511719 33.949219 -63.613281 35.898438 -63.574219 C 37.710938 -63.535156 39.8125 -63.515625 42.207031 -63.515625 L 42.207031 -60.445312 L 39.171875 -60.890625 L 39.757812 -64.875 C 39.996094 -66.464844 40.253906 -68.03125 40.53125 -69.582031 C 40.792969 -71.046875 40.980469 -72.222656 41.089844 -73.101562 C 41.125 -73.394531 41.144531 -73.546875 41.144531 -73.5625 C 41.171875 -73.035156 41.359375 -72.535156 41.714844 -72.0625 C 42.015625 -71.660156 42.398438 -71.351562 42.855469 -71.136719 C 43.417969 -70.878906 44.003906 -70.796875 44.613281 -70.894531 C 45.253906 -70.996094 45.796875 -71.273438 46.246094 -71.722656 L 45.347656 -70.820312 L 44.078125 -70.820312 C 43.84375 -70.820312 42.910156 -70.882812 41.265625 -71.007812 L 36 -71.417969 C 34.078125 -71.570312 32.390625 -71.683594 30.9375 -71.761719 L 30.871094 -71.765625 L 30.804688 -71.773438 C 28.472656 -71.996094 25.65625 -72.128906 22.355469 -72.167969 C 18.953125 -72.207031 15.550781 -72.265625 12.148438 -72.34375 C 8.648438 -72.421875 5.636719 -72.625 3.113281 -72.953125 L 3.507812 -75.996094 L 6.570312 -76.210938 C 7.039062 -69.492188 7.46875 -62.738281 7.859375 -55.945312 C 8.25 -49.117188 8.484375 -42.296875 8.5625 -35.480469 C 8.640625 -31.132812 8.757812 -26.765625 8.914062 -22.382812 L 9.382812 -9.175781 L 9.382812 -9.121094 C 9.382812 -7.429688 9.402344 -5.738281 9.441406 -4.042969 C 9.480469 -2.351562 9.535156 -0.617188 9.613281 1.152344 Z M 9.613281 1.152344 "/></g></g><g style="fill:#fffbfb;fill-opacity:1;"><g transform="translate(668.791553, 314.882927)"><path style="stroke:none" d="M 46.765625 5.640625 L 45.304688 5.640625 C 44.652344 5.640625 43.980469 5.59375 43.292969 5.492188 L 43.726562 2.457031 L 43.472656 5.515625 C 39.703125 5.199219 36.207031 4.867188 32.984375 4.511719 C 29.808594 4.164062 26.550781 3.832031 23.214844 3.523438 C 19.957031 3.21875 16.234375 3.070312 12.042969 3.070312 C 10.667969 3.070312 9.292969 3.089844 7.917969 3.125 C 6.539062 3.164062 5.125 3.222656 3.667969 3.296875 L 0.078125 3.488281 L 0.457031 -0.0859375 C 0.605469 -1.511719 0.738281 -3.347656 0.851562 -5.59375 C 0.96875 -7.875 1.0625 -10.15625 1.140625 -12.4375 C 1.21875 -14.703125 1.257812 -16.519531 1.257812 -17.886719 C 1.257812 -23.410156 1.238281 -27.820312 1.199219 -31.121094 C 1.160156 -34.421875 1.121094 -36.925781 1.082031 -38.628906 C 1.042969 -40.320312 1.003906 -41.558594 0.96875 -42.351562 C 0.929688 -43.136719 0.894531 -43.742188 0.859375 -44.171875 C 0.816406 -44.671875 0.777344 -45.308594 0.734375 -46.078125 C 0.695312 -46.847656 0.65625 -48.085938 0.613281 -49.792969 C 0.574219 -51.480469 0.535156 -53.90625 0.496094 -57.074219 C 0.457031 -60.246094 0.4375 -64.484375 0.4375 -69.800781 L 0.4375 -72.867188 L 3.507812 -72.867188 C 4.1875 -72.867188 5.472656 -72.886719 7.363281 -72.925781 L 13.738281 -73.042969 L 20.289062 -73.160156 C 22.332031 -73.199219 23.832031 -73.21875 24.785156 -73.21875 L 28.019531 -73.21875 L 27.851562 -69.988281 C 27.777344 -68.5625 27.738281 -67.308594 27.738281 -66.234375 C 27.738281 -64.878906 27.636719 -63.742188 27.429688 -62.820312 L 24.433594 -63.484375 L 27.503906 -63.484375 C 27.503906 -63.117188 27.464844 -62.1875 27.382812 -60.6875 C 27.304688 -59.261719 27.230469 -57.617188 27.152344 -55.757812 L 26.917969 -50.261719 C 26.839844 -48.511719 26.804688 -47.074219 26.804688 -45.949219 L 23.734375 -45.949219 L 26.792969 -46.191406 C 26.953125 -44.203125 27.070312 -42.214844 27.152344 -40.226562 C 27.230469 -38.234375 27.269531 -36.207031 27.269531 -34.140625 L 27.269531 -26.714844 C 27.269531 -24.9375 27.25 -23.199219 27.210938 -21.5 C 27.171875 -19.847656 27.152344 -18.566406 27.152344 -17.65625 L 24.085938 -17.65625 L 24.085938 -20.722656 C 25.304688 -20.722656 27.09375 -20.664062 29.445312 -20.542969 L 36.171875 -20.191406 C 38.300781 -20.078125 39.804688 -20.023438 40.6875 -20.023438 C 41.25 -20.023438 41.832031 -20.039062 42.4375 -20.074219 C 43.03125 -20.109375 43.609375 -20.164062 44.164062 -20.230469 L 44.355469 -20.253906 L 45.128906 -20.253906 L 45.128906 -17.1875 L 44.285156 -20.136719 L 45.222656 -20.40625 L 47.101562 -20.78125 L 47.703125 -17.769531 L 45.53125 -19.941406 C 46.207031 -20.617188 47.089844 -20.957031 48.167969 -20.957031 L 51.734375 -20.957031 L 50.855469 -15.09375 L 47.820312 -15.550781 L 50.882812 -15.386719 C 50.726562 -12.386719 50.585938 -10.238281 50.464844 -8.949219 C 50.339844 -7.628906 50.253906 -6.816406 50.203125 -6.511719 C 50.171875 -6.3125 50.140625 -6.15625 50.109375 -6.035156 C 50.078125 -5.914062 50.042969 -5.796875 50 -5.679688 C 49.925781 -5.488281 49.835938 -5.300781 49.726562 -5.128906 C 49.570312 -4.878906 49.382812 -4.652344 49.160156 -4.457031 C 48.578125 -3.941406 47.898438 -3.683594 47.121094 -3.683594 C 46.191406 -3.683594 45.421875 -4.03125 44.808594 -4.730469 C 44.566406 -5.011719 44.375 -5.328125 44.246094 -5.675781 C 44.160156 -5.902344 44.101562 -6.136719 44.074219 -6.378906 C 44.054688 -6.511719 44.046875 -6.644531 44.046875 -6.78125 L 44.046875 -6.804688 L 50.1875 -6.804688 L 50.1875 -6.429688 C 50.1875 -6.085938 50.167969 -5.257812 50.125 -3.941406 C 50.085938 -2.632812 49.988281 -0.414062 49.832031 2.726562 L 49.6875 5.640625 Z M 46.765625 -0.496094 L 46.765625 2.570312 L 43.703125 2.417969 C 43.855469 -0.679688 43.953125 -2.859375 43.992188 -4.125 C 44.027344 -5.382812 44.046875 -6.148438 44.046875 -6.429688 L 44.046875 -6.804688 C 44.046875 -7.210938 44.125 -7.601562 44.28125 -7.980469 C 44.4375 -8.355469 44.660156 -8.6875 44.945312 -8.976562 C 45.234375 -9.261719 45.566406 -9.484375 45.941406 -9.640625 C 46.320312 -9.796875 46.710938 -9.875 47.117188 -9.875 C 47.523438 -9.875 47.914062 -9.796875 48.292969 -9.640625 C 48.667969 -9.484375 49 -9.261719 49.289062 -8.976562 C 49.574219 -8.6875 49.796875 -8.355469 49.953125 -7.980469 C 50.109375 -7.601562 50.1875 -7.210938 50.1875 -6.804688 L 50.1875 -6.78125 C 50.1875 -6.898438 50.179688 -7.019531 50.164062 -7.140625 C 50.132812 -7.375 50.078125 -7.605469 49.992188 -7.832031 C 49.863281 -8.179688 49.675781 -8.492188 49.429688 -8.773438 C 48.820312 -9.472656 48.050781 -9.820312 47.121094 -9.820312 C 46.34375 -9.820312 45.664062 -9.5625 45.082031 -9.046875 C 44.863281 -8.851562 44.675781 -8.628906 44.519531 -8.378906 C 44.414062 -8.207031 44.324219 -8.027344 44.25 -7.835938 C 44.210938 -7.734375 44.179688 -7.628906 44.15625 -7.527344 L 44.148438 -7.519531 C 44.175781 -7.679688 44.242188 -8.347656 44.355469 -9.523438 C 44.46875 -10.726562 44.601562 -12.792969 44.753906 -15.710938 L 44.761719 -15.859375 L 45.132812 -18.34375 L 48.167969 -17.886719 L 48.167969 -14.820312 C 48.78125 -14.820312 49.351562 -15.078125 49.871094 -15.601562 L 49.214844 -14.945312 L 46.550781 -14.410156 L 45.949219 -17.421875 L 46.792969 -14.46875 L 45.558594 -14.117188 L 44.546875 -14.117188 L 44.546875 -17.1875 L 44.925781 -14.140625 C 44.234375 -14.054688 43.527344 -13.992188 42.796875 -13.949219 C 42.074219 -13.90625 41.371094 -13.882812 40.6875 -13.882812 C 39.695312 -13.882812 38.085938 -13.945312 35.851562 -14.0625 L 29.132812 -14.414062 C 26.882812 -14.527344 25.203125 -14.585938 24.085938 -14.585938 L 21.015625 -14.585938 L 21.015625 -17.65625 C 21.015625 -18.613281 21.035156 -19.941406 21.074219 -21.640625 C 21.113281 -23.292969 21.132812 -24.984375 21.132812 -26.714844 L 21.132812 -34.140625 C 21.132812 -36.125 21.09375 -38.070312 21.019531 -39.980469 C 20.941406 -41.886719 20.828125 -43.796875 20.675781 -45.703125 L 20.664062 -45.824219 L 20.664062 -45.949219 C 20.664062 -47.160156 20.703125 -48.6875 20.785156 -50.519531 L 21.019531 -56.015625 C 21.097656 -57.898438 21.175781 -59.566406 21.253906 -61.019531 C 21.328125 -62.40625 21.367188 -63.230469 21.367188 -63.484375 L 21.367188 -63.824219 L 21.441406 -64.152344 C 21.546875 -64.632812 21.601562 -65.328125 21.601562 -66.234375 C 21.601562 -67.417969 21.640625 -68.777344 21.722656 -70.3125 L 24.785156 -70.148438 L 24.785156 -67.082031 C 23.871094 -67.082031 22.40625 -67.0625 20.398438 -67.023438 L 13.851562 -66.90625 L 7.488281 -66.789062 C 5.554688 -66.75 4.230469 -66.730469 3.507812 -66.730469 L 3.507812 -69.800781 L 6.578125 -69.800781 C 6.578125 -64.511719 6.597656 -60.296875 6.632812 -57.152344 C 6.671875 -54.007812 6.710938 -51.601562 6.75 -49.9375 C 6.789062 -48.289062 6.828125 -47.113281 6.863281 -46.402344 C 6.902344 -45.691406 6.9375 -45.121094 6.976562 -44.683594 C 7.015625 -44.179688 7.058594 -43.5 7.097656 -42.644531 C 7.140625 -41.800781 7.179688 -40.507812 7.21875 -38.769531 C 7.257812 -37.042969 7.296875 -34.519531 7.335938 -31.195312 C 7.375 -27.871094 7.394531 -23.433594 7.394531 -17.886719 C 7.394531 -16.449219 7.355469 -14.566406 7.277344 -12.230469 C 7.199219 -9.914062 7.097656 -7.597656 6.980469 -5.28125 C 6.863281 -2.925781 6.722656 -0.980469 6.558594 0.554688 L 3.507812 0.234375 L 3.347656 -2.832031 C 4.851562 -2.910156 6.320312 -2.96875 7.75 -3.007812 C 9.179688 -3.050781 10.609375 -3.070312 12.042969 -3.070312 C 16.425781 -3.070312 20.339844 -2.910156 23.785156 -2.589844 C 27.152344 -2.273438 30.445312 -1.941406 33.65625 -1.589844 C 36.824219 -1.242188 40.265625 -0.914062 43.980469 -0.601562 L 44.070312 -0.597656 L 44.160156 -0.582031 C 44.5625 -0.527344 44.945312 -0.496094 45.304688 -0.496094 Z M 46.765625 -0.496094 "/></g></g><g style="fill:#737373;fill-opacity:1;"><g transform="translate(303.308564, 314.882927)"><path style="stroke:none" d="M 28.171875 0 L 25.71875 -0.46875 C 24.625 -0.625 23.140625 -0.914062 21.265625 -1.34375 C 19.398438 -1.769531 17.4375 -2.21875 15.375 -2.6875 C 13.3125 -3.15625 11.363281 -3.625 9.53125 -4.09375 C 7.695312 -4.5625 6.234375 -4.910156 5.140625 -5.140625 C 4.910156 -5.222656 4.675781 -5.300781 4.4375 -5.375 C 4.207031 -5.457031 3.972656 -5.535156 3.734375 -5.609375 C 3.734375 -5.921875 3.710938 -6.3125 3.671875 -6.78125 C 3.640625 -7.25 3.625 -8.222656 3.625 -9.703125 C 3.625 -11.179688 3.582031 -13.5625 3.5 -16.84375 C 8.957031 -17 13.109375 -17.113281 15.953125 -17.1875 C 18.804688 -17.257812 20.796875 -17.316406 21.921875 -17.359375 C 23.054688 -17.398438 23.796875 -17.421875 24.140625 -17.421875 C 24.492188 -17.421875 24.863281 -17.457031 25.25 -17.53125 L 25.609375 -22.21875 L 25.484375 -22.6875 L 12.859375 -34.609375 L 8.421875 -39.40625 L 6.078125 -42.328125 L 5.96875 -42.4375 L 6.203125 -46.1875 C 6.660156 -47.582031 7.046875 -49 7.359375 -50.4375 C 7.671875 -51.882812 7.945312 -53.351562 8.1875 -54.84375 C 8.34375 -55.613281 8.554688 -56.835938 8.828125 -58.515625 C 9.097656 -60.191406 9.390625 -61.847656 9.703125 -63.484375 C 10.015625 -65.117188 10.210938 -66.25 10.296875 -66.875 L 11.6875 -76.234375 L 43.375 -82.65625 C 44 -80.945312 44.582031 -79.019531 45.125 -76.875 C 45.675781 -74.726562 46.1875 -72.644531 46.65625 -70.625 C 45.875 -70.3125 45.269531 -70.054688 44.84375 -69.859375 C 44.414062 -69.660156 43.789062 -69.328125 42.96875 -68.859375 C 42.144531 -68.398438 40.757812 -67.546875 38.8125 -66.296875 C 36.863281 -65.046875 33.941406 -63.210938 30.046875 -60.796875 C 29.816406 -59.703125 29.425781 -58.359375 28.875 -56.765625 C 28.332031 -55.171875 27.804688 -53.628906 27.296875 -52.140625 C 26.796875 -50.660156 26.347656 -49.414062 25.953125 -48.40625 C 26.421875 -48.175781 27.453125 -47.472656 29.046875 -46.296875 C 30.648438 -45.128906 32.5625 -43.726562 34.78125 -42.09375 C 37 -40.457031 39.273438 -38.816406 41.609375 -37.171875 C 43.953125 -35.535156 46.0625 -34.097656 47.9375 -32.859375 L 49.8125 -31.796875 C 48.789062 -27.742188 47.890625 -23.691406 47.109375 -19.640625 C 46.335938 -15.585938 45.523438 -11.492188 44.671875 -7.359375 C 43.421875 -6.660156 41.742188 -5.863281 39.640625 -4.96875 C 37.535156 -4.070312 35.429688 -3.191406 33.328125 -2.328125 C 31.222656 -1.472656 29.503906 -0.695312 28.171875 0 Z M 28.171875 0 "/></g></g><g style="fill:#737373;fill-opacity:1;"><g transform="translate(356.622826, 314.882927)"><path style="stroke:none" d="M 5.03125 -63.953125 C 5.03125 -66.296875 4.96875 -68.109375 4.84375 -69.390625 C 4.726562 -70.679688 4.59375 -71.789062 4.4375 -72.71875 C 4.28125 -73.65625 4.125 -74.75 3.96875 -76 C 3.8125 -77.25 3.65625 -79.039062 3.5 -81.375 C 3.582031 -81.457031 3.703125 -81.5 3.859375 -81.5 C 6.191406 -82.195312 9.070312 -82.9375 12.5 -83.71875 C 15.9375 -84.5 19.210938 -85.160156 22.328125 -85.703125 C 22.566406 -84.140625 22.957031 -81.894531 23.5 -78.96875 C 24.039062 -76.050781 24.429688 -72.992188 24.671875 -69.796875 C 22.097656 -69.023438 18.921875 -68.109375 15.140625 -67.046875 C 11.359375 -65.992188 7.988281 -64.960938 5.03125 -63.953125 Z M 5.609375 0 C 5.609375 -2.882812 5.585938 -6.296875 5.546875 -10.234375 C 5.515625 -14.171875 5.457031 -18.335938 5.375 -22.734375 C 5.300781 -27.140625 5.222656 -31.484375 5.140625 -35.765625 C 5.066406 -40.054688 4.988281 -43.957031 4.90625 -47.46875 C 4.832031 -50.976562 4.773438 -53.863281 4.734375 -56.125 C 4.691406 -58.382812 4.671875 -59.628906 4.671875 -59.859375 C 5.066406 -59.785156 5.421875 -59.726562 5.734375 -59.6875 C 6.046875 -59.644531 6.359375 -59.625 6.671875 -59.625 C 8.847656 -59.46875 10.484375 -59.347656 11.578125 -59.265625 C 12.671875 -59.191406 13.488281 -59.15625 14.03125 -59.15625 C 14.570312 -59.15625 15.132812 -59.15625 15.71875 -59.15625 C 16.3125 -59.15625 17.132812 -59.097656 18.1875 -58.984375 C 19.238281 -58.867188 20.816406 -58.65625 22.921875 -58.34375 C 23.078125 -58.269531 23.3125 -58.234375 23.625 -58.234375 C 23.695312 -54.878906 23.769531 -52.207031 23.84375 -50.21875 C 23.925781 -48.226562 23.984375 -46.609375 24.015625 -45.359375 C 24.054688 -44.117188 24.078125 -42.910156 24.078125 -41.734375 C 24.078125 -40.566406 24.078125 -39.144531 24.078125 -37.46875 C 24.078125 -35.789062 24.054688 -33.550781 24.015625 -30.75 C 23.984375 -27.945312 23.945312 -24.222656 23.90625 -19.578125 C 23.875 -14.941406 23.816406 -9.078125 23.734375 -1.984375 C 23.421875 -1.910156 22.851562 -1.773438 22.03125 -1.578125 C 21.21875 -1.378906 19.289062 -0.851562 16.25 0 C 15.625 -0.0703125 14.550781 -0.109375 13.03125 -0.109375 C 11.507812 -0.109375 10.03125 -0.109375 8.59375 -0.109375 C 7.15625 -0.109375 6.160156 -0.0703125 5.609375 0 Z M 5.609375 0 "/></g></g><g style="fill:#737373;fill-opacity:1;"><g transform="translate(384.799776, 314.882927)"><path style="stroke:none" d="M 35.3125 0.234375 C 32.113281 0.148438 28.875 0.0703125 25.59375 0 C 22.320312 -0.0703125 19.050781 -0.148438 15.78125 -0.234375 C 14.457031 -0.304688 13.132812 -0.34375 11.8125 -0.34375 C 10.488281 -0.34375 9.160156 -0.34375 7.828125 -0.34375 C 7.441406 -1.988281 7.050781 -4.019531 6.65625 -6.4375 C 6.269531 -8.851562 5.863281 -11.285156 5.4375 -13.734375 C 5.007812 -16.191406 4.5625 -18.203125 4.09375 -19.765625 L 12.984375 -31.453125 C 15.472656 -35.429688 18.140625 -39.25 20.984375 -42.90625 C 23.828125 -46.570312 26.1875 -50.507812 28.0625 -54.71875 L 22.09375 -54.484375 L 16.375 -54.609375 C 14.5 -54.835938 12.800781 -54.929688 11.28125 -54.890625 C 9.757812 -54.859375 7.988281 -54.84375 5.96875 -54.84375 L 3.5 -54.609375 C 3.5 -55.691406 3.535156 -57.109375 3.609375 -58.859375 C 3.691406 -60.617188 3.769531 -62.429688 3.84375 -64.296875 C 3.925781 -66.171875 4.003906 -67.847656 4.078125 -69.328125 C 4.160156 -70.816406 4.203125 -71.832031 4.203125 -72.375 C 6.617188 -72.375 8.332031 -72.351562 9.34375 -72.3125 C 10.363281 -72.269531 11.085938 -72.210938 11.515625 -72.140625 C 11.941406 -72.066406 12.503906 -71.988281 13.203125 -71.90625 C 13.910156 -71.832031 15.179688 -71.773438 17.015625 -71.734375 C 18.847656 -71.691406 21.671875 -71.671875 25.484375 -71.671875 C 27.828125 -71.671875 30.164062 -71.75 32.5 -71.90625 C 34.84375 -72.0625 37.144531 -72.253906 39.40625 -72.484375 C 40.800781 -71.160156 42.21875 -69.390625 43.65625 -67.171875 C 45.101562 -64.953125 46.53125 -62.789062 47.9375 -60.6875 C 49.34375 -58.582031 50.585938 -56.941406 51.671875 -55.765625 L 50.75 -54.015625 C 48.5625 -50.046875 46.179688 -46.1875 43.609375 -42.4375 C 41.035156 -38.695312 38.5625 -34.914062 36.1875 -31.09375 C 33.8125 -27.28125 31.726562 -23.226562 29.9375 -18.9375 C 31.257812 -19.019531 32.539062 -19.078125 33.78125 -19.109375 C 35.03125 -19.148438 36.28125 -19.171875 37.53125 -19.171875 C 39.71875 -19.171875 41.878906 -19.113281 44.015625 -19 C 46.160156 -18.882812 48.328125 -18.75 50.515625 -18.59375 L 50.390625 -0.578125 L 50.046875 -0.578125 C 49.023438 -0.503906 47.96875 -0.40625 46.875 -0.28125 C 45.789062 -0.164062 44.703125 -0.0703125 43.609375 0 Z M 35.3125 0.234375 "/></g></g><g style="fill:#737373;fill-opacity:1;"><g transform="translate(439.984711, 314.882927)"><path style="stroke:none" d="M 20 -0.46875 C 17.582031 -0.695312 15.164062 -0.890625 12.75 -1.046875 C 10.332031 -1.203125 7.875 -1.320312 5.375 -1.40625 L 3.5 -1.40625 C 3.8125 -3.113281 4.203125 -5.332031 4.671875 -8.0625 C 5.140625 -10.789062 5.625 -13.691406 6.125 -16.765625 C 6.632812 -19.847656 7.144531 -22.851562 7.65625 -25.78125 C 8.164062 -28.707031 8.613281 -31.28125 9 -33.5 C 9.394531 -35.71875 9.671875 -37.296875 9.828125 -38.234375 C 9.984375 -39.085938 10.273438 -40.523438 10.703125 -42.546875 C 11.128906 -44.578125 11.65625 -46.898438 12.28125 -49.515625 C 12.90625 -52.128906 13.523438 -54.78125 14.140625 -57.46875 C 14.765625 -60.15625 15.367188 -62.628906 15.953125 -64.890625 C 16.546875 -67.148438 16.992188 -68.90625 17.296875 -70.15625 L 22.328125 -70.859375 C 22.953125 -71.015625 23.691406 -71.128906 24.546875 -71.203125 C 25.410156 -71.285156 26.738281 -71.40625 28.53125 -71.5625 C 30.320312 -71.71875 32.894531 -71.945312 36.25 -72.25 C 36.71875 -71.007812 37.570312 -68.945312 38.8125 -66.0625 C 40.0625 -63.175781 41.503906 -59.957031 43.140625 -56.40625 C 44.773438 -52.863281 46.351562 -49.394531 47.875 -46 C 49.394531 -42.613281 50.660156 -39.789062 51.671875 -37.53125 C 53.160156 -34.019531 54.410156 -30.976562 55.421875 -28.40625 C 56.429688 -25.832031 57.34375 -23.472656 58.15625 -21.328125 C 58.976562 -19.191406 59.78125 -16.914062 60.5625 -14.5 C 61.425781 -12.15625 62.070312 -10.378906 62.5 -9.171875 C 62.925781 -7.960938 63.21875 -7.101562 63.375 -6.59375 C 63.53125 -6.09375 63.644531 -5.6875 63.71875 -5.375 C 63.5625 -5.375 63.40625 -5.335938 63.25 -5.265625 C 61.382812 -4.710938 59.882812 -4.242188 58.75 -3.859375 C 57.625 -3.472656 56.515625 -3.125 55.421875 -2.8125 C 54.328125 -2.5 52.804688 -2.144531 50.859375 -1.75 C 49.535156 -4.007812 48.582031 -5.625 48 -6.59375 C 47.414062 -7.570312 47.023438 -8.21875 46.828125 -8.53125 C 46.628906 -8.84375 46.453125 -9.132812 46.296875 -9.40625 C 46.140625 -9.6875 45.847656 -10.289062 45.421875 -11.21875 C 44.992188 -12.15625 44.234375 -13.753906 43.140625 -16.015625 L 41.390625 -20.234375 C 41.160156 -20.148438 40.300781 -20.007812 38.8125 -19.8125 C 37.332031 -19.625 35.617188 -19.390625 33.671875 -19.109375 C 31.722656 -18.835938 29.910156 -18.601562 28.234375 -18.40625 C 26.554688 -18.21875 25.367188 -18.046875 24.671875 -17.890625 C 24.273438 -17.492188 23.765625 -16.28125 23.140625 -14.25 C 22.523438 -12.226562 21.925781 -9.953125 21.34375 -7.421875 C 20.757812 -4.890625 20.3125 -2.570312 20 -0.46875 Z M 26.78125 -29 L 28.640625 -29.34375 L 37.1875 -30.640625 C 36.632812 -32.191406 35.929688 -34.117188 35.078125 -36.421875 C 34.222656 -38.722656 33.382812 -41.175781 32.5625 -43.78125 C 31.738281 -46.394531 31.097656 -48.910156 30.640625 -51.328125 Z M 26.78125 -29 "/></g></g><g style="fill:#737373;fill-opacity:1;"><g transform="translate(507.212096, 314.882927)"><path style="stroke:none" d="M 18.359375 0 L 16.609375 -0.234375 C 15.359375 -0.390625 14.578125 -0.523438 14.265625 -0.640625 C 13.953125 -0.753906 13.875 -0.734375 14.03125 -0.578125 C 11.070312 -0.972656 8.945312 -1.207031 7.65625 -1.28125 C 6.375 -1.363281 4.988281 -1.25 3.5 -0.9375 C 3.5 -3.894531 3.5 -6.210938 3.5 -7.890625 C 3.5 -9.566406 3.519531 -11.046875 3.5625 -12.328125 C 3.601562 -13.617188 3.640625 -15.117188 3.671875 -16.828125 C 3.710938 -18.546875 3.734375 -20.890625 3.734375 -23.859375 L 3.734375 -49.453125 C 3.816406 -52.023438 3.875 -54.832031 3.90625 -57.875 C 3.945312 -60.914062 4.023438 -63.914062 4.140625 -66.875 C 4.265625 -69.84375 4.441406 -72.414062 4.671875 -74.59375 L 4.90625 -74.71875 C 5.0625 -74.632812 5.21875 -74.59375 5.375 -74.59375 C 5.53125 -74.59375 5.648438 -74.554688 5.734375 -74.484375 C 6.359375 -74.398438 7.445312 -74.238281 9 -74 C 10.5625 -73.769531 12.332031 -73.476562 14.3125 -73.125 C 16.300781 -72.78125 18.234375 -72.453125 20.109375 -72.140625 C 21.984375 -71.828125 23.503906 -71.59375 24.671875 -71.4375 C 28.410156 -70.96875 32.171875 -70.578125 35.953125 -70.265625 C 39.734375 -69.953125 43.492188 -69.679688 47.234375 -69.453125 C 47.234375 -68.828125 47.253906 -67.675781 47.296875 -66 C 47.335938 -64.320312 47.359375 -62.488281 47.359375 -60.5 C 47.359375 -58.519531 47.359375 -56.769531 47.359375 -55.25 C 47.359375 -53.726562 47.359375 -52.847656 47.359375 -52.609375 L 47.234375 -51.09375 C 47.078125 -51.019531 46.742188 -50.984375 46.234375 -50.984375 C 45.734375 -50.984375 44.625 -51.019531 42.90625 -51.09375 C 40.726562 -51.25 38.507812 -51.460938 36.25 -51.734375 C 33.988281 -52.003906 31.726562 -52.140625 29.46875 -52.140625 C 28.6875 -52.140625 27.671875 -52.082031 26.421875 -51.96875 C 25.171875 -51.851562 24.019531 -51.738281 22.96875 -51.625 C 21.914062 -51.507812 21.3125 -51.453125 21.15625 -51.453125 C 21.238281 -50.046875 21.28125 -48.582031 21.28125 -47.0625 C 21.28125 -45.539062 21.28125 -43.609375 21.28125 -41.265625 C 21.59375 -41.265625 22.367188 -41.207031 23.609375 -41.09375 C 24.859375 -40.976562 26.320312 -40.863281 28 -40.75 C 29.675781 -40.632812 31.3125 -40.515625 32.90625 -40.390625 C 34.507812 -40.273438 35.78125 -40.179688 36.71875 -40.109375 C 36.476562 -39.328125 36.238281 -38.054688 36 -36.296875 C 35.769531 -34.546875 35.535156 -32.695312 35.296875 -30.75 C 35.066406 -28.800781 34.875 -27.046875 34.71875 -25.484375 C 34.5625 -23.929688 34.484375 -22.957031 34.484375 -22.5625 L 34.484375 -22.328125 C 33.785156 -22.328125 32.734375 -22.328125 31.328125 -22.328125 C 29.929688 -22.328125 28.453125 -22.304688 26.890625 -22.265625 C 25.328125 -22.234375 23.941406 -22.195312 22.734375 -22.15625 C 21.523438 -22.113281 20.804688 -22.09375 20.578125 -22.09375 L 20.234375 -22.09375 C 20.234375 -21.550781 20.132812 -20.070312 19.9375 -17.65625 C 19.738281 -15.238281 19.519531 -12.46875 19.28125 -9.34375 C 19.050781 -6.226562 18.78125 -3.347656 18.46875 -0.703125 C 18.550781 -1.015625 18.570312 -1.070312 18.53125 -0.875 C 18.488281 -0.675781 18.46875 -0.578125 18.46875 -0.578125 C 18.46875 -0.503906 18.445312 -0.425781 18.40625 -0.34375 C 18.375 -0.269531 18.359375 -0.15625 18.359375 0 Z M 18.359375 0 "/></g></g><g style="fill:#737373;fill-opacity:1;"><g transform="translate(554.563484, 314.882927)"><path style="stroke:none" d="M 26.78125 -0.109375 L 21.984375 -0.578125 L 15.671875 -0.8125 L 12.625 -2.34375 L 9.234375 -5.734375 L 7.71875 -8.1875 L 5.734375 -16.015625 L 5.734375 -16.140625 C 5.179688 -19.328125 4.769531 -22.015625 4.5 -24.203125 C 4.226562 -26.390625 4.015625 -28.335938 3.859375 -30.046875 C 3.703125 -31.765625 3.601562 -33.476562 3.5625 -35.1875 C 3.519531 -36.90625 3.5 -38.894531 3.5 -41.15625 C 3.5 -42.164062 3.519531 -43.390625 3.5625 -44.828125 C 3.601562 -46.273438 3.703125 -48.265625 3.859375 -50.796875 C 4.015625 -53.335938 4.171875 -56.632812 4.328125 -60.6875 L 4.328125 -60.796875 C 4.398438 -60.953125 4.4375 -61.085938 4.4375 -61.203125 C 4.4375 -61.328125 4.476562 -61.425781 4.5625 -61.5 L 4.5625 -61.625 C 5.882812 -61.539062 7.207031 -61.441406 8.53125 -61.328125 C 9.851562 -61.210938 11.140625 -61.113281 12.390625 -61.03125 C 14.335938 -60.957031 16.242188 -60.859375 18.109375 -60.734375 C 19.984375 -60.617188 21.898438 -60.523438 23.859375 -60.453125 L 23.859375 -60.328125 C 23.773438 -60.253906 23.734375 -60.117188 23.734375 -59.921875 C 23.734375 -59.722656 23.734375 -59.664062 23.734375 -59.75 L 23.390625 -47.46875 C 23.304688 -44.820312 23.222656 -42.148438 23.140625 -39.453125 C 23.066406 -36.765625 22.875 -34.054688 22.5625 -31.328125 C 22.332031 -29.148438 22.097656 -27.046875 21.859375 -25.015625 C 21.628906 -22.992188 21.394531 -20.421875 21.15625 -17.296875 L 25.375 -11.453125 C 27.632812 -11.453125 29.851562 -11.570312 32.03125 -11.8125 L 36.359375 -12.515625 L 38.234375 -17.765625 L 38.34375 -18.703125 L 39.046875 -25.375 L 38.9375 -42.796875 L 37.421875 -51.796875 C 37.421875 -52.960938 37.378906 -54.128906 37.296875 -55.296875 C 37.222656 -56.472656 37.109375 -57.601562 36.953125 -58.6875 L 40.34375 -59.390625 C 42.601562 -59.785156 44.550781 -60.0625 46.1875 -60.21875 C 47.820312 -60.375 49.691406 -60.453125 51.796875 -60.453125 L 52.5 -55.765625 C 52.882812 -53.117188 53.132812 -51.285156 53.25 -50.265625 C 53.375 -49.253906 53.4375 -48.671875 53.4375 -48.515625 C 53.4375 -48.359375 53.4375 -48.300781 53.4375 -48.34375 C 53.4375 -48.382812 53.453125 -48.113281 53.484375 -47.53125 C 53.523438 -46.945312 53.664062 -45.640625 53.90625 -43.609375 C 54.132812 -40.410156 54.328125 -37.175781 54.484375 -33.90625 C 54.640625 -30.632812 54.71875 -27.359375 54.71875 -24.078125 C 54.71875 -24.078125 54.539062 -23.375 54.1875 -21.96875 C 53.84375 -20.570312 53.453125 -18.976562 53.015625 -17.1875 C 52.585938 -15.394531 52.179688 -13.875 51.796875 -12.625 L 50.859375 -9.703125 C 49.453125 -7.984375 48.476562 -6.773438 47.9375 -6.078125 C 47.394531 -5.378906 46.945312 -4.875 46.59375 -4.5625 C 46.238281 -4.25 45.691406 -3.914062 44.953125 -3.5625 C 44.210938 -3.21875 42.945312 -2.535156 41.15625 -1.515625 C 38.039062 -1.285156 35.367188 -1.070312 33.140625 -0.875 C 30.921875 -0.675781 28.800781 -0.421875 26.78125 -0.109375 Z M 26.78125 -0.109375 "/></g></g><g style="fill:#737373;fill-opacity:1;"><g transform="translate(612.788207, 314.882927)"><path style="stroke:none" d="M 6.546875 1.28125 C 6.472656 -0.507812 6.414062 -2.257812 6.375 -3.96875 C 6.332031 -5.6875 6.3125 -7.40625 6.3125 -9.125 C 6.15625 -13.488281 6 -17.867188 5.84375 -22.265625 C 5.6875 -26.671875 5.570312 -31.054688 5.5 -35.421875 C 5.414062 -42.203125 5.175781 -48.984375 4.78125 -55.765625 C 4.394531 -62.546875 3.96875 -69.289062 3.5 -76 C 5.914062 -75.6875 8.816406 -75.488281 12.203125 -75.40625 C 15.597656 -75.332031 18.992188 -75.273438 22.390625 -75.234375 C 25.785156 -75.203125 28.6875 -75.066406 31.09375 -74.828125 C 32.582031 -74.753906 34.300781 -74.640625 36.25 -74.484375 C 38.195312 -74.328125 39.945312 -74.1875 41.5 -74.0625 C 43.0625 -73.945312 43.921875 -73.890625 44.078125 -73.890625 C 44.234375 -74.046875 44.253906 -73.65625 44.140625 -72.71875 C 44.023438 -71.789062 43.828125 -70.566406 43.546875 -69.046875 C 43.273438 -67.523438 43.019531 -65.984375 42.78125 -64.421875 C 42.550781 -62.859375 42.359375 -61.535156 42.203125 -60.453125 C 39.785156 -60.453125 37.660156 -60.46875 35.828125 -60.5 C 34.003906 -60.539062 31.84375 -60.445312 29.34375 -60.21875 L 26.3125 -59.859375 C 26.3125 -59.628906 26.328125 -58.789062 26.359375 -57.34375 C 26.398438 -55.90625 26.421875 -54.304688 26.421875 -52.546875 C 26.421875 -50.796875 26.421875 -49.257812 26.421875 -47.9375 C 26.890625 -48.019531 27.863281 -48.097656 29.34375 -48.171875 C 30.820312 -48.242188 32.4375 -48.316406 34.1875 -48.390625 C 35.945312 -48.472656 37.453125 -48.476562 38.703125 -48.40625 L 40.453125 -39.984375 C 40.847656 -38.578125 41.082031 -37.660156 41.15625 -37.234375 C 41.226562 -36.804688 41.265625 -36.570312 41.265625 -36.53125 C 41.265625 -36.5 41.285156 -36.34375 41.328125 -36.0625 C 41.367188 -35.789062 41.503906 -35.070312 41.734375 -33.90625 C 41.734375 -33.59375 41.773438 -33.359375 41.859375 -33.203125 C 39.285156 -33.046875 36.734375 -32.910156 34.203125 -32.796875 C 31.671875 -32.679688 29.15625 -32.546875 26.65625 -32.390625 C 26.65625 -31.140625 26.710938 -29.597656 26.828125 -27.765625 C 26.953125 -25.929688 27.050781 -24.097656 27.125 -22.265625 C 27.207031 -20.441406 27.25 -18.863281 27.25 -17.53125 C 29.425781 -17.925781 31.800781 -18.140625 34.375 -18.171875 C 36.945312 -18.210938 39.441406 -18.210938 41.859375 -18.171875 C 44.273438 -18.140625 46.378906 -18.203125 48.171875 -18.359375 C 49.265625 -18.273438 50.003906 -18.269531 50.390625 -18.34375 C 50.785156 -18.425781 51 -18.425781 51.03125 -18.34375 C 51.070312 -18.269531 51.09375 -17.898438 51.09375 -17.234375 C 51.09375 -16.578125 51.210938 -15.46875 51.453125 -13.90625 C 51.679688 -12.425781 51.875 -10.925781 52.03125 -9.40625 C 52.1875 -7.882812 52.34375 -6.347656 52.5 -4.796875 C 49.769531 -4.710938 46.570312 -4.457031 42.90625 -4.03125 C 39.25 -3.601562 35.976562 -3.3125 33.09375 -3.15625 C 32.226562 -3.082031 30.898438 -2.925781 29.109375 -2.6875 C 27.316406 -2.457031 25.445312 -2.203125 23.5 -1.921875 C 21.550781 -1.648438 19.894531 -1.414062 18.53125 -1.21875 C 17.164062 -1.03125 16.484375 -0.9375 16.484375 -0.9375 C 14.535156 -0.539062 13.113281 -0.265625 12.21875 -0.109375 C 11.320312 0.0351562 10.71875 0.128906 10.40625 0.171875 C 10.09375 0.210938 9.78125 0.289062 9.46875 0.40625 C 9.15625 0.519531 8.53125 0.773438 7.59375 1.171875 C 7.363281 1.242188 7.015625 1.28125 6.546875 1.28125 Z M 6.546875 1.28125 "/></g></g><g style="fill:#737373;fill-opacity:1;"><g transform="translate(668.791553, 314.882927)"><path style="stroke:none" d="M 46.765625 2.578125 C 46.296875 2.578125 45.804688 2.578125 45.296875 2.578125 C 44.796875 2.578125 44.273438 2.535156 43.734375 2.453125 C 39.984375 2.140625 36.507812 1.804688 33.3125 1.453125 C 30.125 1.109375 26.851562 0.78125 23.5 0.46875 C 20.144531 0.15625 16.328125 0 12.046875 0 C 10.640625 0 9.234375 0.015625 7.828125 0.046875 C 6.429688 0.0859375 4.988281 0.148438 3.5 0.234375 C 3.65625 -1.242188 3.789062 -3.132812 3.90625 -5.4375 C 4.03125 -7.738281 4.128906 -10.035156 4.203125 -12.328125 C 4.285156 -14.628906 4.328125 -16.484375 4.328125 -17.890625 C 4.328125 -23.421875 4.304688 -27.84375 4.265625 -31.15625 C 4.222656 -34.46875 4.179688 -36.976562 4.140625 -38.6875 C 4.109375 -40.40625 4.070312 -41.675781 4.03125 -42.5 C 3.988281 -43.320312 3.945312 -43.960938 3.90625 -44.421875 C 3.875 -44.890625 3.835938 -45.492188 3.796875 -46.234375 C 3.753906 -46.984375 3.710938 -48.191406 3.671875 -49.859375 C 3.640625 -51.535156 3.601562 -53.953125 3.5625 -57.109375 C 3.519531 -60.273438 3.5 -64.503906 3.5 -69.796875 C 4.207031 -69.796875 5.515625 -69.816406 7.421875 -69.859375 C 9.335938 -69.898438 11.460938 -69.9375 13.796875 -69.96875 C 16.128906 -70.007812 18.3125 -70.050781 20.34375 -70.09375 C 22.375 -70.132812 23.851562 -70.15625 24.78125 -70.15625 C 24.707031 -68.675781 24.671875 -67.367188 24.671875 -66.234375 C 24.671875 -65.109375 24.59375 -64.191406 24.4375 -63.484375 C 24.4375 -63.171875 24.394531 -62.289062 24.3125 -60.84375 C 24.238281 -59.40625 24.160156 -57.75 24.078125 -55.875 C 24.003906 -54.007812 23.925781 -52.179688 23.84375 -50.390625 C 23.769531 -48.597656 23.734375 -47.117188 23.734375 -45.953125 C 23.890625 -44.003906 24.003906 -42.054688 24.078125 -40.109375 C 24.160156 -38.160156 24.203125 -36.171875 24.203125 -34.140625 C 24.203125 -33.753906 24.203125 -32.859375 24.203125 -31.453125 C 24.203125 -30.046875 24.203125 -28.460938 24.203125 -26.703125 C 24.203125 -24.953125 24.179688 -23.238281 24.140625 -21.5625 C 24.097656 -19.894531 24.078125 -18.59375 24.078125 -17.65625 C 25.253906 -17.65625 26.988281 -17.59375 29.28125 -17.46875 C 31.582031 -17.351562 33.820312 -17.238281 36 -17.125 C 38.1875 -17.007812 39.75 -16.953125 40.6875 -16.953125 C 41.3125 -16.953125 41.953125 -16.972656 42.609375 -17.015625 C 43.273438 -17.054688 43.921875 -17.113281 44.546875 -17.1875 L 45.125 -17.1875 L 45.953125 -17.421875 L 47.703125 -17.765625 C 47.785156 -17.847656 47.941406 -17.890625 48.171875 -17.890625 L 47.828125 -15.546875 C 47.671875 -12.585938 47.53125 -10.484375 47.40625 -9.234375 C 47.289062 -7.984375 47.210938 -7.242188 47.171875 -7.015625 C 47.140625 -6.785156 47.125 -6.707031 47.125 -6.78125 C 47.125 -6.851562 47.125 -6.734375 47.125 -6.421875 C 47.125 -6.117188 47.101562 -5.320312 47.0625 -4.03125 C 47.019531 -2.75 46.921875 -0.546875 46.765625 2.578125 Z M 46.765625 2.578125 "/></g></g></g></svg>